<?xml version="1.0" encoding="utf-8"?>
<!-- Generator: Adobe Illustrator 23.0.6, SVG Export Plug-In . SVG Version: 6.00 Build 0)  -->
<svg version="1.1" id="Calque_1" xmlns="http://www.w3.org/2000/svg" xmlns:xlink="http://www.w3.org/1999/xlink" x="0px" y="0px"
	 viewBox="0 0 80 80" style="enable-background:new 0 0 80 80;" xml:space="preserve">
<style type="text/css">
	.st0{fill:#BB9815;}
	.st1{fill:#FAD549;}
	.st2{fill:#3E3207;}
	.st3{fill:#7D650E;}
	.st4{fill:#F9CA1C;}
	.st5{fill:#FBDF77;}
	.st6{fill:#FDEAA4;}
	.st7{fill:#FEF4D2;}
</style>
<title>01 Base / Ic / AgileDeve</title>
<g id="scrum" transform="translate(0.000000, 1.000000)">
	<g id="Path" transform="translate(10.065810, 59.883041)">
		<path class="st0" d="M69.2,9.5l-5-5.8L60.3,7l1.4,1.6c0,0-32.9,0-33.1,0c-6.5,0-12.7-2.8-16.9-7.8L7.8,4.2
			c1.4,1.7,3.1,3.2,4.8,4.4H0v5.1h61.3l-1.3,1.4l3.8,3.5l5.2-5.7C70,12,70,10.5,69.2,9.5z"/>
		<path class="st1" d="M46.9,6.7l-3.4-3.8c1-0.9,1.8-1.8,2.6-2.8l4,3.2C49.1,4.5,48.1,5.7,46.9,6.7z"/>
	</g>
	<path class="st0" d="M38.6,18.9C27.2,18.9,17.3,26,13.3,36c-4.9-2.2-8.1-7.1-8.1-12.7c0-6,3.8-11.1,9.1-13.1L13,12.4l4.5,2.5
		l3.9-6.8c0.7-1.1,0.3-2.6-0.8-3.4L13.8,0l-2.9,4.2l1.7,1.2C5.3,8.1,0,15.1,0,23.3C0,31.2,4.7,38.1,11.8,41
		c-0.4,1.9-0.6,3.9-0.5,5.9l-1.6-1.1l-3,4.1l6.4,4.7c1,0.7,2.4,0.6,3.3-0.3l5.2-5.3L18,45.4L16.4,47C15.9,34.5,26.1,24,38.6,24
		c12.3,0,22.3,10,22.3,22.3c0,3.6-0.9,7.2-2.6,10.4l4.5,2.4c2.1-3.9,3.2-8.3,3.2-12.8C66,31.2,53.7,18.9,38.6,18.9z"/>
	<ellipse id="Oval" class="st0" cx="38.6" cy="46.4" rx="10.1" ry="10"/>
</g>
<rect x="-108.6" y="106.8" class="st2" width="25.7" height="25.7"/>
<rect x="-70.8" y="106.8" class="st3" width="25.7" height="25.7"/>
<rect x="-30.4" y="106.8" class="st0" width="25.7" height="25.7"/>
<rect x="4.7" y="106.8" class="st4" width="25.7" height="25.7"/>
<rect x="39.9" y="106.8" class="st1" width="25.7" height="25.7"/>
<rect x="83.5" y="106.8" class="st5" width="25.7" height="25.7"/>
<rect x="122.8" y="106.8" class="st6" width="25.7" height="25.7"/>
<rect x="172.9" y="106.8" class="st7" width="25.7" height="25.7"/>
</svg>
