<?xml version="1.0" encoding="utf-8"?>
<!-- Generator: Adobe Illustrator 23.0.6, SVG Export Plug-In . SVG Version: 6.00 Build 0)  -->
<svg version="1.1" id="Calque_1" xmlns="http://www.w3.org/2000/svg" xmlns:xlink="http://www.w3.org/1999/xlink" x="0px" y="0px"
	 viewBox="0 0 80 80" style="enable-background:new 0 0 80 80;" xml:space="preserve">
<style type="text/css">
	.st0{fill:#BB9815;}
	.st1{fill-rule:evenodd;clip-rule:evenodd;fill:#F9CA1C;}
	.st2{fill:#3E3207;}
	.st3{fill:#7D650E;}
	.st4{fill:#F9CA1C;}
	.st5{fill:#FAD549;}
	.st6{fill:#FBDF77;}
	.st7{fill:#FDEAA4;}
	.st8{fill:#FEF4D2;}
</style>
<title>01 Base / Ic / atomicdesign</title>
<g>
	<g id="Group" transform="translate(3.500000, 3.500000)">
		<path id="Oval" class="st0" d="M36.5,0C56.7,0,73,16.3,73,36.5S56.7,73,36.5,73S0,56.7,0,36.5S16.3,0,36.5,0z M36.5,4
			C18.6,4,4,18.6,4,36.5S18.6,69,36.5,69S69,54.4,69,36.5S54.4,4,36.5,4z"/>
		<circle class="st1" cx="62.8" cy="15.3" r="9"/>
	</g>
	<circle class="st1" cx="40" cy="40" r="19.5"/>
</g>
<rect x="-113.6" y="101.2" class="st2" width="25.7" height="25.7"/>
<rect x="-73.4" y="101.2" class="st3" width="25.7" height="25.7"/>
<rect x="-33.2" y="101.2" class="st0" width="25.7" height="25.7"/>
<rect x="7" y="101.2" class="st4" width="25.7" height="25.7"/>
<rect x="47.3" y="101.2" class="st5" width="25.7" height="25.7"/>
<rect x="87.5" y="101.2" class="st6" width="25.7" height="25.7"/>
<rect x="127.7" y="101.2" class="st7" width="25.7" height="25.7"/>
<rect x="167.9" y="101.2" class="st8" width="25.7" height="25.7"/>
</svg>
