<?xml version="1.0" encoding="utf-8"?>
<!-- Generator: Adobe Illustrator 23.0.6, SVG Export Plug-In . SVG Version: 6.00 Build 0)  -->
<svg version="1.1" id="Calque_1" xmlns="http://www.w3.org/2000/svg" xmlns:xlink="http://www.w3.org/1999/xlink" x="0px" y="0px"
	 viewBox="0 0 80 80" style="enable-background:new 0 0 80 80;" xml:space="preserve">
<style type="text/css">
	.st0{fill:#F92A62;}
	.st1{fill:#FED4E0;}
	.st2{fill:#BB204A;}
	.st3{fill:#FB7FA1;}
	.st4{fill:#FDAAC0;}
	.st5{fill:#FA5581;}
	.st6{fill:#F44336;}
	.st7{fill:#7D1531;}
	.st8{fill:#FAFAFA;}
	.st9{fill:#3E0A18;}
</style>
<title>01 Base / Ic / CrossBrowser</title>
<g>
	<g id="internet-explorer" transform="translate(45.000000, 20.000000)">
		<g id="Group" transform="translate(1.813254, 5.124415)">
			<path id="Path" class="st0" d="M14.5,1.5c0.4-0.3,0.4-0.8,0.1-1.2C14.4,0.1,14.1,0,13.8,0C5.8,1.4-0.1,8.5,0.1,16.7
				c0,0.7,0.1,1.4,0.1,2.1c0.1,0.4,0.4,0.7,0.7,0.7c0,0,0.1,0,0.1,0c0.3,0,0.7-0.2,0.8-0.5c1.3-3.3,3.1-6.4,5.2-9.3
				C9.1,6.6,11.7,3.9,14.5,1.5z"/>
			<path class="st0" d="M31.8,14C31,8,26.9,2.9,21.2,0.8c-0.3-0.1-0.6,0-0.8,0.2c-1.5,1.3-3,2.8-4.4,4.3c-0.3,0.3-0.3,0.9,0.1,1.2
				c0.1,0.1,0.3,0.2,0.5,0.2c3,0.3,5.6,3,6.6,6.7h-13c-0.3,0-0.5,0.1-0.7,0.4c-1.1,1.6-2.1,3.1-3,4.6l0,0l0,0
				C5,20.6,3.8,23,2.8,25.5c-0.1,0.3,0,0.5,0.1,0.8c0,0,0,0,0,0.1c2.9,4.4,7.8,7.1,13,7.1c6.7-0.1,12.6-4.3,14.8-10.6
				c0.2-0.4-0.1-0.9-0.5-1.1c-0.1,0-0.2-0.1-0.3-0.1h-7c-0.3,0-0.6,0.2-0.8,0.5c-1.1,2.6-3.5,4.4-6.3,4.6c-3.2,0-6-2.7-7.1-6.7h22
				c0.4,0,0.8-0.3,0.8-0.7c0.1-0.9,0.2-1.8,0.2-2.6C32,15.8,31.9,14.9,31.8,14z"/>
		</g>
		<path class="st1" d="M29,0.8c-2.8-2-8-0.3-13.7,4.5c-2.9,2.5-5.6,5.3-7.8,8.5c-2.2,3-4,6.2-5.4,9.7c0,0,0,0.1,0,0.1
			c-2.7,6.7-2.6,12.4,0.2,14.4c0.9,0.6,2,1,3.1,1.1c0.2,0,0.4,0,0.6-0.1c0.5-0.1,0.9-0.4,1.2-0.8c0.2-0.4,0.1-0.9-0.3-1.1
			c-0.5-0.3-2.1-1.3-0.6-5.7c0.9-2.4,2-4.7,3.4-6.9c0.9-1.5,1.9-3,3-4.6l1.2-1.7c1.6-2.3,3.4-4.5,5.3-6.6c1.3-1.5,2.7-2.9,4.2-4.2
			c3.2-2.7,4.6-2.7,5-2.5s0.8,0.6,1,1.5c0.1,0.4,0.5,0.7,0.9,0.7c0.4,0,0.7-0.4,0.8-0.8C31,3,29.9,1.5,29,0.8z"/>
	</g>
	<g transform="translate(30.000000, 21.000000)">
		<path class="st1" d="M20,0C9,0,0,9,0,20s9,20,20,20s20-9,20-20C40,9,31,0,20,0z"/>
		<path class="st2" d="M20,3.3C10.8,3.3,3.3,10.8,3.3,20S10.8,36.7,20,36.7S36.7,29.2,36.7,20C36.7,10.8,29.2,3.3,20,3.3z"/>
		<path class="st1" d="M29.3,19.2l-2.8-0.6c-0.2-0.7-0.5-1.4-0.9-2.1c0-0.1-0.1-0.1-0.1-0.2l-1.9-1.9c0,0-0.1-0.1-0.2-0.1
			c-0.6-0.4-1.4-0.7-2.1-0.9l-0.6-2.8c-0.1-0.5-0.5-0.7-1-0.7c-0.3,0.1-0.6,0.3-0.7,0.7l-0.6,2.8C16,14,14,16,13.5,18.6l-2.8,0.6
			c-0.5,0.1-0.7,0.5-0.7,1c0.1,0.3,0.3,0.6,0.7,0.7l2.8,0.6c0.2,0.7,0.5,1.4,0.9,2.1c0,0.1,0.1,0.1,0.1,0.2l1.9,1.9
			c0,0,0.1,0.1,0.2,0.1c0.6,0.4,1.4,0.7,2.1,0.9l0.6,2.8c0.1,0.5,0.5,0.7,1,0.7c0.3-0.1,0.6-0.3,0.7-0.7l0.6-2.8
			c2.6-0.5,4.6-2.5,5.1-5.1l2.8-0.6c0.5-0.1,0.7-0.5,0.7-1C29.9,19.5,29.7,19.3,29.3,19.2L29.3,19.2L29.3,19.2z"/>
		<path class="st0" d="M29.9,11.3l-7.5,10.8c0,0-0.1,0.1-0.1,0.1l-4.5-4.5c0,0,0.1-0.1,0.1-0.1l10.8-7.5c0.4-0.2,0.9-0.1,1.1,0.3
			C30,10.7,30,11,29.9,11.3z"/>
		<path class="st3" d="M22.2,22.2c0,0-0.1,0.1-0.1,0.1l-10.8,7.5c-0.3,0.2-0.8,0.2-1.1-0.1c-0.3-0.3-0.3-0.7-0.1-1l7.5-10.8
			c0,0,0.1-0.1,0.1-0.1L22.2,22.2z"/>
	</g>
	<g id="firefox" transform="translate(15.000000, 22.000000)">
		<path class="st0" d="M27.7,0.1c-0.4-0.1-0.9,0.1-1,0.6c-0.1,0.3,0,0.7,0.3,0.9c3.3,2.3,5.3,8.3,5.5,13c-0.8-1.4-1.8-2.7-3.1-3.7
			c-0.4-0.3-0.9-0.2-1.2,0.2c-0.2,0.3-0.2,0.7,0,1c3,4.1,2.1,9.8-1.9,12.8c-1.6,1.2-3.5,1.8-5.4,1.8c-0.9,0-1.9-0.1-2.7-0.4
			c0.9-0.4,1.9-0.9,2.7-1.5c1-0.8,2.1-1.3,3.4-1.4c0.5,0,0.8-0.4,0.8-0.8c0-0.1,0-0.1,0-0.2c-0.4-1.4-1.8-2.4-3.3-2.3
			c-0.8,0-1.6,0.3-2.1,0.9c-0.4,0.4-0.9,0.8-2.8,0.8c-3.4,0-5-2-5-3.3c0.1-0.5,0.3-0.9,0.7-1.2c0.4-0.3,0.8-0.5,1.2-0.7
			c0.3,0.3,0.8,0.3,1.2,0c0.5-0.5,0.6-1.3,0.4-1.9l4.5-3c0.4-0.3,0.5-0.8,0.2-1.2c-0.2-0.2-0.4-0.4-0.7-0.4h-1.7
			c-1.9,0-3.1-0.4-3.3-1c-0.4-0.9,0.9-2.9,2.2-4.2c0.3-0.3,0.3-0.9,0-1.2c-0.2-0.2-0.4-0.2-0.6-0.2c-2.2,0.2-4.2,1.4-5.3,3.2
			C9.2,6.5,8,6.5,6.7,6.7C6.4,6.4,6.2,6.1,6,5.7c-0.5-1-0.9-2-1-3.1c0-0.5-0.4-0.8-0.8-0.8C3.9,1.7,3.7,1.8,3.6,2
			C1.8,3.9,1.3,6.7,2.3,9.1c-5.1,9.8-1.4,21.8,8.4,27c2.9,1.5,6.1,2.3,9.3,2.3c11.2,0,20-8.4,20-19.1v-1.7
			C39.9,7.4,33.6,1.9,27.7,0.1z"/>
	</g>
	<g id="chrome" transform="translate(0.000000, 21.000000)">
		<path class="st0" d="M38.5,12.5H20c-4.1,0-7.5,3.3-7.5,7.5c0,1.3,0.3,2.5,1,3.7L4.2,7.8c6.7-8.7,19.3-10.3,28-3.6
			C35,6.3,37.1,9.2,38.5,12.5z"/>
		<path class="st4" d="M39.9,20c0,11-8.9,20-20,20c-0.8,0-1.7-0.1-2.5-0.2l9-16.1c2.1-3.6,0.8-8.2-2.7-10.2c-1.1-0.7-2.4-1-3.7-1
			h18.5C39.4,14.9,39.9,17.4,39.9,20z"/>
		<path class="st5" d="M26.4,23.7l-9,16.1h0C6.5,38.4-1.2,28.4,0.2,17.5c0.4-3.5,1.8-6.9,4-9.7l9.2,15.9l0,0.1
			c2.1,3.6,6.6,4.8,10.2,2.8C24.8,25.8,25.8,24.8,26.4,23.7z"/>
		<path class="st6" d="M26.4,23.7c-2.1,3.6-6.6,4.8-10.2,2.8c-1.1-0.7-2.1-1.6-2.8-2.8l0-0.1c-2-3.6-0.7-8.2,2.9-10.2
			c1.1-0.6,2.4-1,3.7-1h0c1.3,0,2.6,0.3,3.7,1C27.3,15.5,28.5,20.1,26.4,23.7z"/>
		<path class="st7" d="M26.4,23.7c-2.1,3.6-6.6,4.8-10.2,2.8c-1.1-0.7-2.1-1.6-2.8-2.8l0-0.1c-2-3.6-0.7-8.2,2.9-10.2
			c1.1-0.6,2.4-1,3.7-1h0c1.3,0,2.6,0.3,3.7,1C27.3,15.5,28.5,20.1,26.4,23.7z"/>
		<path id="Shape" class="st8" d="M19.9,28.3c-1.5,0-2.9-0.4-4.1-1.1c-1.3-0.7-2.3-1.8-3-3.1c-2.3-4-0.9-9.1,3-11.4
			c1.3-0.7,2.7-1.1,4.2-1.1c4.6,0,8.3,3.7,8.3,8.3c0,1.5-0.4,2.9-1.1,4.2l0,0C25.7,26.7,22.9,28.3,19.9,28.3z M20,13.3
			c-2.4,0-4.6,1.3-5.8,3.3c-1.8,3.2-0.7,7.3,2.4,9.1s7.3,0.7,9.1-2.4l0,0c1.8-3.2,0.7-7.3-2.4-9.1C22.3,13.6,21.1,13.3,20,13.3
			L20,13.3L20,13.3z"/>
	</g>
</g>
<rect x="-108.5" y="108.8" class="st9" width="25.7" height="25.7"/>
<rect x="-70.7" y="108.8" class="st7" width="25.7" height="25.7"/>
<rect x="-30.3" y="108.8" class="st2" width="25.7" height="25.7"/>
<rect x="4.8" y="108.8" class="st0" width="25.7" height="25.7"/>
<rect x="40" y="108.8" class="st5" width="25.7" height="25.7"/>
<rect x="83.6" y="108.8" class="st3" width="25.7" height="25.7"/>
<rect x="122.9" y="108.8" class="st4" width="25.7" height="25.7"/>
<rect x="173" y="108.8" class="st1" width="25.7" height="25.7"/>
</svg>
