<?xml version="1.0" encoding="utf-8"?>
<!-- Generator: Adobe Illustrator 23.0.6, SVG Export Plug-In . SVG Version: 6.00 Build 0)  -->
<svg version="1.1" id="Calque_1" xmlns="http://www.w3.org/2000/svg" xmlns:xlink="http://www.w3.org/1999/xlink" x="0px" y="0px"
	 viewBox="0 0 80 80" style="enable-background:new 0 0 80 80;" xml:space="preserve">
<style type="text/css">
	.st0{fill:#F92A62;}
	.st1{fill:#3E0A18;}
	.st2{fill:#7D1531;}
	.st3{fill:#BB204A;}
	.st4{fill:#FA5581;}
	.st5{fill:#FB7FA1;}
	.st6{fill:#FDAAC0;}
	.st7{fill:#FED4E0;}
</style>
<title>01 Base / Ic / git</title>
<g>
	<g id="git-icon">
		<path id="Path" class="st0" d="M78.5,36.4L43.6,1.5c-2-2-5.3-2-7.3,0L29,8.8l9.2,9.2c2.1-0.7,4.6-0.2,6.3,1.5
			c1.7,1.7,2.2,4.2,1.5,6.3l8.9,8.9c2.1-0.7,4.6-0.3,6.3,1.5c2.4,2.4,2.4,6.3,0,8.7c-2.4,2.4-6.3,2.4-8.7,0
			c-1.8-1.8-2.2-4.4-1.3-6.7l-8.3-8.3l0,21.8c0.6,0.3,1.1,0.7,1.6,1.2c2.4,2.4,2.4,6.3,0,8.7c-2.4,2.4-6.3,2.4-8.7,0
			c-2.4-2.4-2.4-6.3,0-8.7c0.6-0.6,1.3-1,2-1.3v-22c-0.8-0.3-1.4-0.8-2-1.3c-1.8-1.8-2.3-4.5-1.3-6.7l-9.1-9.1l-24,23.9
			c-2,2-2,5.3,0,7.3l34.9,34.9c2,2,5.3,2,7.3,0l34.8-34.8C80.5,41.7,80.5,38.4,78.5,36.4"/>
	</g>
</g>
<rect x="-113.6" y="146.1" class="st1" width="25.7" height="25.7"/>
<rect x="-75.8" y="146.1" class="st2" width="25.7" height="25.7"/>
<rect x="-35.4" y="146.1" class="st3" width="25.7" height="25.7"/>
<rect x="-0.3" y="146.1" class="st0" width="25.7" height="25.7"/>
<rect x="34.9" y="146.1" class="st4" width="25.7" height="25.7"/>
<rect x="78.5" y="146.1" class="st5" width="25.7" height="25.7"/>
<rect x="117.8" y="146.1" class="st6" width="25.7" height="25.7"/>
<rect x="167.9" y="146.1" class="st7" width="25.7" height="25.7"/>
</svg>
