<?xml version="1.0" encoding="utf-8"?>
<!-- Generator: Adobe Illustrator 23.0.6, SVG Export Plug-In . SVG Version: 6.00 Build 0)  -->
<svg version="1.1" id="Calque_1" xmlns="http://www.w3.org/2000/svg" xmlns:xlink="http://www.w3.org/1999/xlink" x="0px" y="0px"
	 viewBox="0 0 80 80" style="enable-background:new 0 0 80 80;" xml:space="preserve">
<style type="text/css">
	.st0{fill:#7D1531;}
	.st1{fill:#F92A62;}
	.st2{fill:#FED4E0;}
	.st3{fill:#3E0A18;}
	.st4{fill:#FFFFFF;}
	.st5{fill:#3E3207;}
	.st6{fill:#7D650E;}
	.st7{fill:#BB9815;}
	.st8{fill:#F9CA1C;}
	.st9{fill:#FAD549;}
	.st10{fill:#FBDF77;}
	.st11{fill:#FDEAA4;}
	.st12{fill:#FEF4D2;}
	.st13{fill:#BB204A;}
	.st14{fill:#FA5581;}
	.st15{fill:#FB7FA1;}
	.st16{fill:#FDAAC0;}
</style>
<title>01 Base / Ic / Html5</title>
<g id="html-5" transform="translate(11.000000, 0.000000)">
	<polygon id="Path" class="st0" points="56.7,15.7 51.5,73.6 28.3,80 5.2,73.6 0,15.7 	"/>
	<polygon class="st1" points="28.3,75.1 47.1,69.9 51.5,20.5 28.3,20.5 	"/>
	<path id="Shape" class="st2" d="M18.3,34.6h10v-7.1H10.5l0.2,1.9L12.5,49h15.9v-7.1H19L18.3,34.6L18.3,34.6z M19.9,52.5h-7.1
		l1,11.1l14.5,4l0,0v-7.4l0,0l-7.9-2.1L19.9,52.5L19.9,52.5z"/>
	<path class="st3" d="M5.3,0h3.6v3.6h3.3V0h3.6v10.8h-3.6V7.2H8.9v3.6H5.3L5.3,0L5.3,0z M20.5,3.6h-3.2V0h10v3.6h-3.2v7.2h-3.6
		L20.5,3.6L20.5,3.6L20.5,3.6z M28.9,0h3.8L35,3.8L37.3,0H41v10.8h-3.6V5.4L35,9.3h-0.1l-2.5-3.8v5.3h-3.5V0z M42.8,0h3.6v7.2h5.1
		v3.6h-8.7L42.8,0L42.8,0z"/>
	<path class="st4" d="M28.3,49h8.7l-0.8,9.2l-7.9,2.1v7.4l14.5-4l0.1-1.2l1.7-18.7l0.2-1.9H28.3V49z M28.3,34.6L28.3,34.6l17.1,0
		l0.1-1.6l0.3-3.6l0.2-1.9H28.3V34.6L28.3,34.6z"/>
</g>
<rect x="-113.6" y="104.2" class="st5" width="25.7" height="25.7"/>
<rect x="-75.8" y="104.2" class="st6" width="25.7" height="25.7"/>
<rect x="-35.4" y="104.2" class="st7" width="25.7" height="25.7"/>
<rect x="-0.3" y="104.2" class="st8" width="25.7" height="25.7"/>
<rect x="34.9" y="104.2" class="st9" width="25.7" height="25.7"/>
<rect x="78.5" y="104.2" class="st10" width="25.7" height="25.7"/>
<rect x="117.8" y="104.2" class="st11" width="25.7" height="25.7"/>
<rect x="167.9" y="104.2" class="st12" width="25.7" height="25.7"/>
<rect x="-102.7" y="154.2" class="st3" width="25.7" height="25.7"/>
<rect x="-64.9" y="154.2" class="st0" width="25.7" height="25.7"/>
<rect x="-24.5" y="154.2" class="st13" width="25.7" height="25.7"/>
<rect x="10.6" y="154.2" class="st1" width="25.7" height="25.7"/>
<rect x="45.8" y="154.2" class="st14" width="25.7" height="25.7"/>
<rect x="89.4" y="154.2" class="st15" width="25.7" height="25.7"/>
<rect x="128.7" y="154.2" class="st16" width="25.7" height="25.7"/>
<rect x="178.8" y="154.2" class="st2" width="25.7" height="25.7"/>
</svg>
