<?xml version="1.0" encoding="utf-8"?>
<!-- Generator: Adobe Illustrator 23.0.6, SVG Export Plug-In . SVG Version: 6.00 Build 0)  -->
<svg version="1.1" id="Calque_1" xmlns="http://www.w3.org/2000/svg" xmlns:xlink="http://www.w3.org/1999/xlink" x="0px" y="0px"
	 viewBox="0 0 80 78" style="enable-background:new 0 0 80 78;" xml:space="preserve">
<style type="text/css">
	.st0{fill:#2E157D;}
	.st1{fill:#BDA9FD;}
	.st2{fill:#170A3F;}
	.st3{fill:#441FBB;}
	.st4{fill:#5B29FA;}
	.st5{fill:#7C54FB;}
	.st6{fill:#9D7FFC;}
</style>
<title>Adobe_Photoshop_Lightroom_Classic_CC_icon</title>
<g id="Adobe_Photoshop_Lightroom_Classic_CC_icon" transform="translate(1.000000, 1.000000)">
	<path id="Path" class="st0" d="M13.1-1h51.5c7.8,0,14.1,6.3,14.1,14.1v49.6c0,7.8-6.3,14.1-14.1,14.1H13.1C5.3,76.8-1,70.5-1,62.7
		V13.1C-1,5.3,5.3-1,13.1-1z"/>
	<g id="LrC" transform="translate(8.404669, 19.922179)">
		<path class="st1" d="M18.6,34.1h-19c-0.3,0-0.5-0.2-0.5-0.6v-34C-0.8-0.8-0.7-1-0.4-1h5.9c0.2,0,0.3,0.1,0.3,0.4v27.9h13.8
			c0.3,0,0.4,0.2,0.3,0.5l-0.9,5.8c0,0.2-0.1,0.3-0.2,0.4C18.8,34.1,18.7,34.1,18.6,34.1z"/>
		<path class="st1" d="M23.3,7.5h5.3c0.3,0,0.5,0.2,0.6,0.5c0.1,0.2,0.2,0.5,0.2,0.8c0.1,0.3,0.1,0.7,0.1,1c0,0.4,0,0.8,0,1.2
			c0.9-1.1,2-2.1,3.2-2.9c1.3-0.8,2.9-1.2,4.5-1.2c0.3,0,0.4,0.2,0.4,0.5v6.5c0,0.3-0.2,0.4-0.5,0.4c-1.1-0.1-2.1,0-3.1,0.2
			c-0.9,0.2-1.7,0.5-2.5,0.9c-0.6,0.3-1.2,0.7-1.6,1.2v17c0,0.3-0.1,0.5-0.4,0.5h-5.8c-0.3,0-0.5-0.2-0.5-0.5V15.1
			c0-0.8,0-1.6,0-2.5c0-0.9,0-1.7-0.1-2.6c0-0.7-0.1-1.5-0.2-2.2c0-0.1,0-0.2,0.1-0.3C23.2,7.5,23.2,7.4,23.3,7.5z"/>
		<path class="st1" d="M61.3,2.5C60.6,2.2,59.8,2.1,59,2c-1.1-0.1-2.3-0.2-3.4-0.2c-3.3,0-6.1,0.7-8.5,2.1c-2.3,1.4-4.3,3.4-5.5,5.8
			c-1.3,2.5-1.9,5.4-1.9,8.7c0,2,0.2,3.9,0.7,5.9c0.5,1.6,1.2,3.1,2.1,4.5c0.9,1.3,2,2.4,3.3,3.3c1.3,0.9,2.7,1.6,4.2,2
			c1.6,0.4,3.2,0.7,4.9,0.7c1.2,0,2.3-0.1,3.4-0.2c0.9-0.1,1.8-0.3,2.7-0.7c0.3-0.2,0.5-0.5,0.5-0.9v-4.9c0-0.2,0-0.4-0.2-0.5
			c-0.1-0.1-0.3-0.2-0.5,0c-0.7,0.3-1.5,0.5-2.3,0.6c-1,0.1-1.9,0.1-2.9,0.1c-0.9,0-1.8-0.1-2.6-0.4c-0.9-0.2-1.7-0.6-2.5-1.1
			c-0.8-0.5-1.5-1.2-2.1-1.9c-0.6-0.9-1.1-1.8-1.5-2.9c-0.4-1.3-0.6-2.6-0.5-3.9c0-1.8,0.3-3.7,1.1-5.3c0.7-1.4,1.8-2.6,3.1-3.5
			c1.5-0.9,3.1-1.3,4.9-1.3c1,0,2.1,0.1,3.1,0.3c0.8,0.1,1.6,0.4,2.4,0.8c0.1,0.1,0.3,0.1,0.4,0c0.1-0.1,0.2-0.3,0.2-0.5V3.4
			C61.7,3,61.6,2.7,61.3,2.5z"/>
	</g>
</g>
<rect x="-121.2" y="106" width="25.7" height="25.7"/>
<rect x="-83.4" y="106" class="st2" width="25.7" height="25.7"/>
<rect x="-43" y="106" class="st0" width="25.7" height="25.7"/>
<rect x="-7.9" y="106" class="st3" width="25.7" height="25.7"/>
<rect x="27.3" y="106" class="st4" width="25.7" height="25.7"/>
<rect x="70.9" y="106" class="st5" width="25.7" height="25.7"/>
<rect x="110.2" y="106" class="st6" width="25.7" height="25.7"/>
<rect x="160.3" y="106" class="st1" width="25.7" height="25.7"/>
</svg>
