<?xml version="1.0" encoding="utf-8"?>
<!-- Generator: Adobe Illustrator 23.0.6, SVG Export Plug-In . SVG Version: 6.00 Build 0)  -->
<svg version="1.1" id="Calque_1" xmlns="http://www.w3.org/2000/svg" xmlns:xlink="http://www.w3.org/1999/xlink" x="0px" y="0px"
	 viewBox="0 0 80 80" style="enable-background:new 0 0 80 80;" xml:space="preserve">
<style type="text/css">
	.st0{fill:#BDA9FD;}
	.st1{fill:#2E157D;}
	.st2{fill:#3E3207;}
	.st3{fill:#7D650E;}
	.st4{fill:#BB9815;}
	.st5{fill:#F9CA1C;}
	.st6{fill:#FAD549;}
	.st7{fill:#FBDF77;}
	.st8{fill:#FDEAA4;}
	.st9{fill:#FEF4D2;}
	.st10{fill:#170A3F;}
	.st11{fill:#441FBB;}
	.st12{fill:#5B29FA;}
	.st13{fill:#7C54FB;}
	.st14{fill:#9D7FFC;}
</style>
<title>01 Base / Ic / Photoshop</title>
<g>
	<g id="Adobe_Photoshop_CC_icon" transform="translate(0.000000, 1.000000)">
		<g id="Surfaces">
			<g id="Photo_Surface">
				<g id="Outline_no_shadow">
					<path id="Path" class="st0" d="M14.2,0h51.7C73.7,0,80,6.3,80,14.2v49.7C80,71.7,73.7,78,65.8,78H14.2C6.3,78,0,71.7,0,63.8
						V14.2C0,6.3,6.3,0,14.2,0z"/>
				</g>
			</g>
		</g>
		<g id="Outlined_Mnemonics_Logos" transform="translate(18.000000, 19.666667)">
			<g id="Ps">
				<path id="Shape" class="st1" d="M0,35V0.7c0-0.2,0.1-0.4,0.3-0.4c0.6,0,1.1,0,1.9,0s1.6,0,2.5-0.1s1.9,0,2.9-0.1s2,0,3,0
					c2.7,0,5,0.3,6.9,1c1.7,0.6,3.2,1.5,4.5,2.7c1.1,1.1,1.9,2.4,2.4,3.8s0.8,2.8,0.8,4.3c0,2.9-0.7,5.2-2,7.1s-3.2,3.3-5.4,4.1
					c-2.3,0.8-4.8,1.1-7.5,1.1c-0.8,0-1.3,0-1.7,0c-0.3,0-0.8,0-1.4,0V35c0,0.2-0.1,0.4-0.4,0.5H6.7H0.4C0.1,35.5,0,35.3,0,35z
					 M7.3,6.8V18c0.5,0,0.9,0.1,1.3,0.1h1.8c1.3,0,2.6-0.2,3.8-0.6c1.1-0.3,2-0.9,2.7-1.8c0.7-0.8,1-2,1-3.4c0-1-0.2-2.1-0.8-3
					c-0.6-0.9-1.4-1.5-2.3-1.9c-1.2-0.5-2.6-0.7-3.9-0.7c-0.9,0-1.6,0-2.3,0C8,6.7,7.5,6.8,7.3,6.8L7.3,6.8z"/>
				<path class="st1" d="M46,16c-1-0.5-2.1-0.9-3.2-1.1c-1.2-0.3-2.5-0.4-3.7-0.4c-0.7,0-1.4,0.1-2,0.2c-0.4,0.1-0.8,0.3-1,0.7
					c-0.2,0.3-0.3,0.6-0.3,0.9s0.1,0.6,0.3,0.9c0.3,0.4,0.7,0.7,1.1,0.9c0.8,0.4,1.6,0.8,2.4,1.1c1.8,0.6,3.5,1.4,5.1,2.4
					c1.1,0.7,2,1.6,2.6,2.8c0.5,1.1,0.8,2.2,0.8,3.4c0,1.6-0.4,3.1-1.3,4.4c-0.9,1.3-2.2,2.4-3.7,3c-1.6,0.7-3.6,1.1-6,1.1
					c-1.5,0-3-0.1-4.5-0.4c-1.2-0.2-2.3-0.6-3.4-1.1c-0.2-0.1-0.4-0.4-0.4-0.6v-5.8c0-0.1,0-0.2,0.1-0.3c0.1-0.1,0.2,0,0.3,0
					c1.3,0.8,2.7,1.3,4.1,1.6c1.3,0.3,2.6,0.5,3.9,0.5c1.3,0,2.2-0.2,2.8-0.5c0.5-0.2,0.9-0.8,0.9-1.4c0-0.5-0.3-0.9-0.8-1.3
					s-1.6-0.9-3.3-1.6c-1.7-0.6-3.3-1.4-4.7-2.4c-1-0.7-1.9-1.7-2.5-2.8c-0.5-1.1-0.8-2.2-0.8-3.4c0-1.4,0.4-2.8,1.1-4
					c0.8-1.3,2.1-2.4,3.5-3.1c1.6-0.9,3.6-1.3,6-1.3c1.4,0,2.8,0.1,4.1,0.3c1,0.1,2,0.4,2.9,0.8c0.1,0,0.3,0.2,0.3,0.3
					s0.1,0.3,0.1,0.4v5.4c0,0.1-0.1,0.3-0.2,0.3C46.3,16,46.1,16,46,16z"/>
			</g>
		</g>
	</g>
</g>
<rect x="-97.2" y="95.6" class="st2" width="25.7" height="25.7"/>
<rect x="-59.4" y="95.6" class="st3" width="25.7" height="25.7"/>
<rect x="-19" y="95.6" class="st4" width="25.7" height="25.7"/>
<rect x="16.1" y="95.6" class="st5" width="25.7" height="25.7"/>
<rect x="51.3" y="95.6" class="st6" width="25.7" height="25.7"/>
<rect x="94.9" y="95.6" class="st7" width="25.7" height="25.7"/>
<rect x="134.2" y="95.6" class="st8" width="25.7" height="25.7"/>
<rect x="184.3" y="95.6" class="st9" width="25.7" height="25.7"/>
<rect x="-97.2" y="137.8" width="25.7" height="25.7"/>
<rect x="-59.4" y="137.8" class="st10" width="25.7" height="25.7"/>
<rect x="-19" y="137.8" class="st1" width="25.7" height="25.7"/>
<rect x="16.1" y="137.8" class="st11" width="25.7" height="25.7"/>
<rect x="51.3" y="137.8" class="st12" width="25.7" height="25.7"/>
<rect x="94.9" y="137.8" class="st13" width="25.7" height="25.7"/>
<rect x="134.2" y="137.8" class="st14" width="25.7" height="25.7"/>
<rect x="184.3" y="137.8" class="st0" width="25.7" height="25.7"/>
</svg>
