<?xml version="1.0" encoding="utf-8"?>
<!-- Generator: Adobe Illustrator 23.0.6, SVG Export Plug-In . SVG Version: 6.00 Build 0)  -->
<svg version="1.1" id="Calque_1" xmlns="http://www.w3.org/2000/svg" xmlns:xlink="http://www.w3.org/1999/xlink" x="0px" y="0px"
	 viewBox="0 0 80 80" style="enable-background:new 0 0 80 80;" xml:space="preserve">
<style type="text/css">
	.st0{fill:#F92A62;}
	.st1{fill:#3E0A18;}
	.st2{fill:#7D1531;}
	.st3{fill:#BB204A;}
	.st4{fill:#FA5581;}
	.st5{fill:#FB7FA1;}
	.st6{fill:#FDAAC0;}
	.st7{fill:#FED4E0;}
</style>
<title>01 Base / Ic / React</title>
<g id="react" transform="translate(0.000000, 4.000000)">
	<path class="st0" d="M62.9,24.8c-0.8-0.3-1.5-0.5-2.3-0.7c0.1-0.5,0.2-1,0.4-1.6c1.7-8.4,0.6-15.2-3.3-17.4C54,3,48,5.2,41.9,10.6
		c-0.6,0.5-1.2,1.1-1.8,1.6c-0.4-0.4-0.8-0.7-1.2-1.1C32.5,5.4,26.1,3,22.2,5.2c-3.7,2.1-4.8,8.5-3.2,16.5c0.2,0.8,0.3,1.6,0.5,2.4
		c-0.9,0.3-1.8,0.5-2.6,0.8c-7.5,2.6-12.3,6.7-12.3,11c0,4.4,5.2,8.8,13,11.5c0.6,0.2,1.3,0.4,1.9,0.6c-0.2,0.8-0.4,1.7-0.6,2.5
		c-1.5,7.8-0.3,14,3.4,16.2c3.8,2.2,10.2-0.1,16.4-5.5c0.5-0.4,1-0.9,1.5-1.4c0.6,0.6,1.3,1.2,1.9,1.8c6,5.2,12,7.3,15.7,5.2
		c3.8-2.2,5-8.9,3.4-17c-0.1-0.6-0.3-1.3-0.4-1.9c0.4-0.1,0.9-0.3,1.3-0.4c8.1-2.7,13.4-7.1,13.4-11.5
		C75.6,31.6,70.6,27.5,62.9,24.8z M43.9,12.8C49.1,8.3,54,6.5,56.2,7.8c2.4,1.4,3.3,6.9,1.8,14.2c-0.1,0.5-0.2,0.9-0.3,1.4
		c-2.9-0.7-6.1-1.2-9.5-1.5c-2-2.8-4-5.3-6-7.5C42.8,13.8,43.3,13.3,43.9,12.8z M25.5,39.5c0.6,1.2,1.3,2.5,2,3.7
		c0.7,1.2,1.5,2.4,2.2,3.6c-2.3-0.3-4.5-0.6-6.5-1.1C23.9,43.7,24.6,41.6,25.5,39.5z M25.5,32.4c-0.9-2.1-1.6-4.2-2.3-6.1
		c2-0.5,4.2-0.8,6.4-1.1c-0.8,1.2-1.5,2.4-2.2,3.6C26.8,29.9,26.2,31.1,25.5,32.4z M27.1,35.9c0.9-1.9,1.9-3.9,3-5.7v0
		c1.1-1.9,2.2-3.7,3.4-5.5c2.1-0.2,4.3-0.2,6.5-0.2c2.2,0,4.4,0.1,6.5,0.2c1.2,1.8,2.3,3.6,3.4,5.5c1.1,1.9,2.1,3.8,3.1,5.7
		c-0.9,2-2,3.9-3.1,5.7h0c-1.1,1.9-2.2,3.7-3.4,5.5c-2.1,0.2-4.3,0.2-6.5,0.2c-2.2,0-4.4-0.1-6.4-0.2c-1.2-1.8-2.4-3.6-3.5-5.5
		C29.1,39.8,28.1,37.9,27.1,35.9z M52.6,43.2c0.7-1.2,1.4-2.5,2.1-3.8c0.9,2.2,1.7,4.3,2.4,6.2c-2.1,0.5-4.3,0.8-6.6,1.1
		C51.2,45.6,51.9,44.4,52.6,43.2z M54.6,32.4c-0.7-1.2-1.3-2.5-2-3.7c-0.7-1.2-1.4-2.4-2.2-3.6c2.3,0.3,4.4,0.7,6.5,1.1
		C56.3,28.2,55.5,30.3,54.6,32.4z M40.1,16.5c1.4,1.5,2.8,3.2,4.2,5c-2.8-0.1-5.6-0.1-8.4,0C37.3,19.7,38.7,18,40.1,16.5z M23.7,7.9
		c2.4-1.4,7.6,0.6,13.2,5.5c0.4,0.3,0.7,0.6,1.1,1c-2.1,2.2-4.1,4.7-6,7.5c-3.3,0.3-6.5,0.8-9.5,1.5c-0.2-0.7-0.3-1.5-0.5-2.2v0
		C20.6,14.3,21.5,9.1,23.7,7.9z M20.3,45c-0.6-0.2-1.2-0.4-1.8-0.5c-3.5-1.2-6.3-2.7-8.3-4.4c-1.8-1.5-2.7-3-2.7-4.2
		c0-2.6,3.9-5.9,10.3-8.1c0.8-0.3,1.6-0.5,2.4-0.8c0.9,2.9,2.1,5.9,3.5,9C22.4,39,21.2,42.1,20.3,45z M36.7,58.9
		c-2.8,2.4-5.5,4.1-7.9,5h0c-2.2,0.8-3.9,0.8-5,0.2c-2.2-1.3-3.2-6.3-1.9-13c0.2-0.8,0.3-1.6,0.5-2.4c2.9,0.6,6.1,1.1,9.6,1.4
		c2,2.8,4,5.3,6.1,7.5C37.6,58,37.2,58.5,36.7,58.9z M40.2,55.4c-1.4-1.6-2.9-3.3-4.3-5.1c1.4,0.1,2.7,0.1,4.2,0.1
		c1.4,0,2.9,0,4.3-0.1C43,52.2,41.6,53.9,40.2,55.4z M58.6,59.7c-0.4,2.3-1.3,3.8-2.3,4.4c-2.2,1.3-7-0.4-12.2-4.8
		c-0.6-0.5-1.2-1.1-1.8-1.6c2-2.2,4-4.7,6-7.6c3.4-0.3,6.7-0.8,9.6-1.5c0.1,0.6,0.3,1.2,0.4,1.7C59,53.9,59.1,57.1,58.6,59.7z
		 M61.2,44.5L61.2,44.5c-0.4,0.1-0.8,0.3-1.2,0.4c-0.9-2.8-2.1-5.9-3.6-9c1.4-3.1,2.6-6,3.5-8.9c0.7,0.2,1.4,0.4,2.1,0.7
		c6.6,2.3,10.6,5.6,10.6,8.2C72.5,38.6,68.2,42.2,61.2,44.5z"/>
	<path class="st0" d="M40.1,29.5c3.5,0,6.3,2.8,6.3,6.3c0,3.5-2.8,6.3-6.3,6.3c-3.5,0-6.3-2.8-6.3-6.3
		C33.7,32.4,36.6,29.5,40.1,29.5"/>
</g>
<rect x="-109.3" y="101.1" class="st1" width="25.7" height="25.7"/>
<rect x="-71.5" y="101.1" class="st2" width="25.7" height="25.7"/>
<rect x="-31.1" y="101.1" class="st3" width="25.7" height="25.7"/>
<rect x="4" y="101.1" class="st0" width="25.7" height="25.7"/>
<rect x="39.2" y="101.1" class="st4" width="25.7" height="25.7"/>
<rect x="82.8" y="101.1" class="st5" width="25.7" height="25.7"/>
<rect x="122.1" y="101.1" class="st6" width="25.7" height="25.7"/>
<rect x="172.2" y="101.1" class="st7" width="25.7" height="25.7"/>
</svg>
