<?xml version="1.0" encoding="utf-8"?>
<!-- Generator: Adobe Illustrator 23.0.6, SVG Export Plug-In . SVG Version: 6.00 Build 0)  -->
<svg version="1.1" id="Calque_1" xmlns="http://www.w3.org/2000/svg" xmlns:xlink="http://www.w3.org/1999/xlink" x="0px" y="0px"
	 viewBox="0 0 80 80" style="enable-background:new 0 0 80 80;" xml:space="preserve">
<style type="text/css">
	.st0{fill:#BB9815;}
	.st1{fill:#F9CA1C;}
	.st2{fill:#FBDF77;}
	.st3{fill:#FEF4D2;}
	.st4{fill:#3E3207;}
	.st5{fill:#7D650E;}
	.st6{fill:#FAD549;}
	.st7{fill:#FDEAA4;}
</style>
<title>01 Base / Ic / Sketch</title>
<g id="sketch-2" transform="translate(0.000000, 3.500000)">
	<g id="a-link" transform="translate(0.015237, 25.804076)">
		<polygon id="a" class="st0" points="16.2,0 40,46.6 0,0 		"/>
	</g>
	
		<g id="b-link" transform="translate(59.984763, 49.304076) scale(-1, 1) translate(-59.984763, -49.304076) translate(39.984763, 25.804076)">
		<polygon id="b" class="st0" points="16.2,0 40,46.6 0,0 		"/>
	</g>
	<g id="c-link" transform="translate(16.208918, 25.804076)">
		<polygon id="c" class="st1" points="0,0 47.6,0 23.8,46.6 		"/>
	</g>
	<g id="d-link" transform="translate(16.208918, 0.001693)">
		<polygon id="d" class="st2" points="23.8,0 1.3,2.4 0,25.8 		"/>
	</g>
	
		<g id="e-link" transform="translate(51.782617, 13.001693) scale(-1, 1) translate(-51.782617, -13.001693) translate(39.782617, 0.001693)">
		<polygon id="e" class="st2" points="23.8,0 1.3,2.4 0,25.8 		"/>
	</g>
	
		<g id="f-link" transform="translate(70.984763, 14.383764) scale(-1, 1) translate(-70.984763, -14.383764) translate(61.984763, 2.383764)">
		<polygon id="f" class="st1" points="0,23.4 17.4,0 16.2,23.4 		"/>
	</g>
	<g id="g-link" transform="translate(0.015237, 2.383764)">
		<polygon id="g" class="st1" points="0,23.4 17.4,0 16.2,23.4 		"/>
	</g>
	<g id="h-link" transform="translate(16.208918, 0.001693)">
		<polygon id="h" class="st3" points="23.8,0 0,25.8 47.6,25.8 		"/>
	</g>
</g>
<rect x="-113.6" y="106.2" class="st4" width="25.7" height="25.7"/>
<rect x="-73.4" y="106.2" class="st5" width="25.7" height="25.7"/>
<rect x="-33.2" y="106.2" class="st0" width="25.7" height="25.7"/>
<rect x="7" y="106.2" class="st1" width="25.7" height="25.7"/>
<rect x="47.3" y="106.2" class="st6" width="25.7" height="25.7"/>
<rect x="87.5" y="106.2" class="st2" width="25.7" height="25.7"/>
<rect x="127.7" y="106.2" class="st7" width="25.7" height="25.7"/>
<rect x="167.9" y="106.2" class="st3" width="25.7" height="25.7"/>
</svg>
