<?xml version="1.0" encoding="utf-8"?>
<!-- Generator: Adobe Illustrator 23.0.6, SVG Export Plug-In . SVG Version: 6.00 Build 0)  -->
<svg version="1.1" id="Capa_1" xmlns="http://www.w3.org/2000/svg" xmlns:xlink="http://www.w3.org/1999/xlink" x="0px" y="0px"
	 viewBox="0 0 512 512" style="enable-background:new 0 0 512 512;" xml:space="preserve">
<style type="text/css">
	.st0{fill:#FED4E0;}
	.st1{fill:#FDAAC0;}
	.st2{fill:#7D1531;}
	.st3{fill:#FFFFFF;}
	.st4{fill:#BB204A;}
	.st5{fill:#FA5581;}
	.st6{fill:#FB7FA1;}
	.st7{fill:#3E0A18;}
	.st8{fill:#F92A62;}
</style>
<polygon class="st0" points="341.8,441.1 221.9,441.1 237.1,367 326.6,367 "/>
<polygon class="st1" points="341.8,441.1 326.6,367 237.1,367 311.2,441.1 "/>
<rect x="189.7" y="441.1" class="st0" width="184.1" height="9"/>
<path class="st2" d="M62.9,61.9c-6.1,0-11.2,5-11.2,11.2v282.7c0,6.2,5,11.2,11.2,11.2h437.9c6.2,0,11.2-5,11.2-11.2V73.1
	c0-6.1-5.1-11.2-11.2-11.2L62.9,61.9L62.9,61.9z"/>
<rect x="75" y="85.1" class="st3" width="413.7" height="258.6"/>
<rect x="92.2" y="99.6" class="st4" width="114.5" height="34.3"/>
<g>
	<rect x="224.6" y="99.6" class="st0" width="249.6" height="34.3"/>
	<rect x="89.5" y="293.2" class="st0" width="384.8" height="11.3"/>
	<rect x="89.5" y="317.9" class="st0" width="384.8" height="11.3"/>
</g>
<g>
	<rect x="89.5" y="214.5" class="st5" width="114.5" height="65.3"/>
	<rect x="224.6" y="214.5" class="st5" width="114.5" height="65.3"/>
	<rect x="359.8" y="214.5" class="st5" width="114.5" height="65.3"/>
</g>
<rect x="89.5" y="147.4" class="st6" width="384.8" height="53.7"/>
<path class="st7" d="M286.2,367H62.9c-6.1,0-11.1-5.1-11.1-11.2V204.1H75v139.6h187.9L286.2,367z"/>
<path class="st1" d="M262.9,343.7H75V204.1h39.5c5.7,0,10.9,2.1,14.7,5.9c0.4,0.2,0.7,0.6,1.1,1.1l3.5,3.5H89.5v65.3H199l13.4,13.4
	H89.5v11.4h134.3l13.4,13.4H89.5v11.3h159L262.9,343.7z"/>
<polygon class="st8" points="199,279.8 89.5,279.8 89.5,214.5 133.7,214.5 "/>
<g>
	<polygon class="st6" points="223.8,304.6 89.5,304.6 89.5,293.2 212.4,293.2 	"/>
	<polygon class="st6" points="248.4,329.2 89.5,329.2 89.5,317.9 237.2,317.9 	"/>
</g>
<path class="st2" d="M16.8,450.1c-9.2,0-16.8-7.6-16.8-16.8V225.7c0-9.2,7.6-16.8,16.8-16.8h97.6c9.2,0,16.8,7.6,16.8,16.8v207.5
	c0,9.3-7.6,16.8-16.8,16.8L16.8,450.1L16.8,450.1z"/>
<g>
	<path class="st7" d="M80.2,432.7c0,2.2-1.8,4-4,4H55.1c-2.2,0-4-1.8-4-4V431c0-2.2,1.8-4,4-4h21.1c2.2,0,4,1.8,4,4
		C80.2,431,80.2,432.7,80.2,432.7z"/>
	<path class="st7" d="M70.5,227.1c0,2.7-2.1,4.9-4.8,4.9c-2.7,0-4.9-2.2-4.9-4.9c0-2.7,2.2-4.8,4.9-4.8
		C68.3,222.3,70.5,224.4,70.5,227.1z"/>
</g>
<path class="st6" d="M67.9,227.1c0,1.3-1,2.3-2.3,2.3c-1.3,0-2.3-1-2.3-2.3c0-1.3,1-2.3,2.3-2.3C66.9,224.8,67.9,225.8,67.9,227.1z"
	/>
<rect x="9.5" y="245.4" class="st3" width="112.2" height="168.3"/>
<rect x="18.2" y="254" class="st4" width="94.9" height="14.5"/>
<g>
	<rect x="18.2" y="389.8" class="st0" width="94.9" height="4.8"/>
	<rect x="18.2" y="400.3" class="st0" width="94.9" height="4.8"/>
</g>
<rect x="18.2" y="309.7" class="st5" width="94.9" height="74.4"/>
<rect x="18.2" y="274.1" class="st6" width="94.9" height="29.9"/>
<rect x="36.1" y="586.5" class="st7" width="25.7" height="25.7"/>
<rect x="73.9" y="586.5" class="st2" width="25.7" height="25.7"/>
<rect x="114.3" y="586.5" class="st4" width="25.7" height="25.7"/>
<rect x="149.4" y="586.5" class="st8" width="25.7" height="25.7"/>
<rect x="184.6" y="586.5" class="st5" width="25.7" height="25.7"/>
<rect x="228.2" y="586.5" class="st6" width="25.7" height="25.7"/>
<rect x="267.5" y="586.5" class="st1" width="25.7" height="25.7"/>
<rect x="317.6" y="586.5" class="st0" width="25.7" height="25.7"/>
</svg>
