<?xml version="1.0" encoding="utf-8"?>
<!-- Generator: Adobe Illustrator 23.0.6, SVG Export Plug-In . SVG Version: 6.00 Build 0)  -->
<svg version="1.1" id="Calque_1" xmlns="http://www.w3.org/2000/svg" xmlns:xlink="http://www.w3.org/1999/xlink" x="0px" y="0px"
	 viewBox="0 0 80 80" style="enable-background:new 0 0 80 80;" xml:space="preserve">
<style type="text/css">
	.st0{fill:#F9CA1C;}
	.st1{fill:#BB9815;}
	.st2{fill:#FDEAA4;}
	.st3{fill:#7D650E;}
	.st4{fill:#3E3207;}
	.st5{fill:#FAD549;}
	.st6{fill:#FBDF77;}
	.st7{fill:#FEF4D2;}
</style>
<title>01 Base / Ic / zeplin</title>
<g>
	<g id="zeplin" transform="translate(-0.500000, 8.509971)">
		<path id="Path" class="st0" d="M12.3,44.1l-4.2,1.5L7.9,58.1l14.5-5.3C17.4,51.1,13.8,48.2,12.3,44.1"/>
		<path class="st1" d="M14.5,31L0,36.3l8.1,9.4l4.2-1.5C10.9,40,11.8,35.5,14.5,31"/>
		<path class="st2" d="M39,13C20.5,19.7,8.5,33.7,12.3,44.1l67-24.5C75.5,9.2,57.4,6.2,39,13"/>
		<path class="st3" d="M52.7,50.8C71.1,44,83.1,30.2,79.3,19.7l-67,24.5C16.1,54.6,34.2,57.5,52.7,50.8"/>
		<path class="st1" d="M79.3,19.7l-67,24.5c1.3,3.6,6.3,5.4,13.3,5.4c6.8,0,15.6-1.7,24.7-5C68.9,37.7,81.9,26.8,79.3,19.7"/>
		<path class="st0" d="M66,14.3c-6.8,0-15.6,1.7-24.7,5C22.7,26,9.7,37,12.3,44.1l67-24.5C78,16,73,14.3,66,14.3"/>
		<g id="Group" transform="translate(25.891151, 0.000000)">
			<path id="Shape" class="st3" d="M36.4,58.8c-2,0-4.9-1.8-8.6-5.3c-4.5-4.2-9.5-10.2-14.4-17.1C8.6,29.5,4.6,22.6,2.3,16.9
				c-2.6-6.1-2.9-9.9-1.1-11.2c0.4-0.3,0.9-0.4,1.5-0.4c1.5,0,4.4,1.1,9.9,6.5l0.1,0.1l0,0.2c0,0.4-0.1,0.8-0.1,1.2L12.4,14
				l-0.5-0.5C6,7.6,3.5,6.9,2.6,6.9c-0.2,0-0.4,0-0.6,0.1c-0.8,0.6-0.9,3.3,1.6,9.3c2.3,5.5,6.2,12.3,11,19.1
				c4.7,6.8,9.8,12.8,14.1,16.9c4.7,4.4,6.8,4.9,7.5,4.9c0.2,0,0.4,0,0.6-0.2c0.8-0.6,0.8-3.6-1.9-9.9l-0.1-0.3l0.3-0.2
				c0.3-0.2,0.6-0.3,0.8-0.4l0.3-0.2l0.2,0.4c2,4.5,3.8,10.3,1.4,12C37.4,58.6,36.9,58.8,36.4,58.8z M36.4,58.1v0.3V58.1z"/>
			<path class="st3" d="M27.2,50.6l0,0.3c-0.5,5.8-1.7,12.7-4.9,13c-0.1,0-0.1,0-0.2,0c-2.2,0-4.2-3.1-6.1-9.3
				c-1.8-5.8-3.2-13.7-3.9-22c-0.7-8.4-0.7-16.3,0-22.4c0.8-6.6,2.4-10,4.6-10.2c0.1,0,0.1,0,0.2,0c1.6,0,4,1.8,6.4,10.1l-1.6,0.3
				c-0.8-2.8-1.7-5.1-2.6-6.6c-0.8-1.4-1.6-2.2-2.2-2.2c0,0,0,0-0.1,0c-1,0.1-2.4,2.5-3.2,8.8c-0.7,5.9-0.7,13.8,0,22
				c0.7,8.3,2.1,16,3.8,21.7c0.8,2.6,1.6,4.7,2.5,6.1c0.8,1.3,1.5,2.1,2.1,2.1c0,0,0,0,0.1,0c0.9-0.1,2.7-2.5,3.4-11.2L27.2,50.6z"
				/>
		</g>
	</g>
</g>
<rect x="-113.6" y="110.3" class="st4" width="25.7" height="25.7"/>
<rect x="-75.8" y="110.3" class="st3" width="25.7" height="25.7"/>
<rect x="-35.4" y="110.3" class="st1" width="25.7" height="25.7"/>
<rect x="-0.3" y="110.3" class="st0" width="25.7" height="25.7"/>
<rect x="34.9" y="110.3" class="st5" width="25.7" height="25.7"/>
<rect x="78.5" y="110.3" class="st6" width="25.7" height="25.7"/>
<rect x="117.8" y="110.3" class="st2" width="25.7" height="25.7"/>
<rect x="167.9" y="110.3" class="st7" width="25.7" height="25.7"/>
</svg>
