<?xml version="1.0" encoding="utf-8"?>
<!-- Generator: Adobe Illustrator 23.0.6, SVG Export Plug-In . SVG Version: 6.00 Build 0)  -->
<svg version="1.1" id="Calque_1" xmlns="http://www.w3.org/2000/svg" xmlns:xlink="http://www.w3.org/1999/xlink" x="0px" y="0px"
	 viewBox="0 0 80 80" style="enable-background:new 0 0 80 80;" xml:space="preserve">
<style type="text/css">
	.st0{fill:#F92A62;}
	.st1{fill:#FFFFFF;}
	.st2{fill:#3E3207;}
	.st3{fill:#7D650E;}
	.st4{fill:#BB9815;}
	.st5{fill:#F9CA1C;}
	.st6{fill:#FAD549;}
	.st7{fill:#FBDF77;}
	.st8{fill:#FDEAA4;}
	.st9{fill:#FEF4D2;}
	.st10{fill:#3E0A18;}
	.st11{fill:#7D1531;}
	.st12{fill:#BB204A;}
	.st13{fill:#FA5581;}
	.st14{fill:#FB7FA1;}
	.st15{fill:#FDAAC0;}
	.st16{fill:#FED4E0;}
</style>
<title>01 Base / Ic / SamsungGuidelines</title>
<g id="bootstrap-4">
	<path id="Path" class="st0" d="M0,69.7C0,75.4,4.6,80,10.3,80h59.4C75.4,80,80,75.4,80,69.7V10.3C80,4.6,75.4,0,69.7,0H10.3
		C4.6,0,0,4.6,0,10.3V69.7L0,69.7z"/>
	<path id="Shape" class="st1" d="M33.2,35.4V24.1h10c1,0,1.9,0.1,2.7,0.2c0.9,0.2,1.7,0.4,2.3,0.8c0.7,0.4,1.2,1,1.6,1.7
		c0.4,0.7,0.6,1.7,0.6,2.8c0,2-0.6,3.5-1.8,4.4c-1.2,0.9-2.8,1.4-4.7,1.4H33.2L33.2,35.4z M22.5,15.8v48.4H46c2.2,0,4.3-0.3,6.3-0.8
		s3.9-1.4,5.5-2.5c1.6-1.1,2.9-2.6,3.8-4.4c1-1.8,1.4-3.9,1.4-6.3c0-3-0.7-5.6-2.2-7.8c-1.5-2.1-3.7-3.7-6.7-4.5
		c2.2-1,3.8-2.4,4.9-4c1.1-1.6,1.7-3.7,1.7-6.1c0-2.3-0.4-4.2-1.1-5.7c-0.7-1.5-1.8-2.8-3.2-3.7c-1.4-0.9-3-1.6-4.9-2
		c-1.9-0.4-4-0.6-6.3-0.6H22.5z M33.2,55.9V42.6h11.6c2.3,0,4.2,0.5,5.6,1.6c1.4,1.1,2.1,2.8,2.1,5.3c0,1.3-0.2,2.3-0.6,3.1
		c-0.4,0.8-1,1.5-1.7,1.9c-0.7,0.5-1.6,0.8-2.5,1c-1,0.2-1.9,0.3-3,0.3H33.2L33.2,55.9z"/>
</g>
<rect x="-113.6" y="109.2" class="st2" width="25.7" height="25.7"/>
<rect x="-75.8" y="109.2" class="st3" width="25.7" height="25.7"/>
<rect x="-35.4" y="109.2" class="st4" width="25.7" height="25.7"/>
<rect x="-0.3" y="109.2" class="st5" width="25.7" height="25.7"/>
<rect x="34.9" y="109.2" class="st6" width="25.7" height="25.7"/>
<rect x="78.5" y="109.2" class="st7" width="25.7" height="25.7"/>
<rect x="117.8" y="109.2" class="st8" width="25.7" height="25.7"/>
<rect x="167.9" y="109.2" class="st9" width="25.7" height="25.7"/>
<rect x="-130.4" y="148.8" class="st10" width="25.7" height="25.7"/>
<rect x="-92.6" y="148.8" class="st11" width="25.7" height="25.7"/>
<rect x="-52.2" y="148.8" class="st12" width="25.7" height="25.7"/>
<rect x="-17.1" y="148.8" class="st0" width="25.7" height="25.7"/>
<rect x="18.1" y="148.8" class="st13" width="25.7" height="25.7"/>
<rect x="61.7" y="148.8" class="st14" width="25.7" height="25.7"/>
<rect x="101" y="148.8" class="st15" width="25.7" height="25.7"/>
<rect x="151.1" y="148.8" class="st16" width="25.7" height="25.7"/>
</svg>
