<?xml version="1.0" encoding="utf-8"?>
<!-- Generator: Adobe Illustrator 23.0.6, SVG Export Plug-In . SVG Version: 6.00 Build 0)  -->
<svg version="1.1" id="Calque_1" xmlns="http://www.w3.org/2000/svg" xmlns:xlink="http://www.w3.org/1999/xlink" x="0px" y="0px"
	 viewBox="0 0 57 80" style="enable-background:new 0 0 57 80;" xml:space="preserve">
<style type="text/css">
	.st0{fill:#3E0A18;}
	.st1{fill:#BB204A;}
	.st2{fill:#FA5581;}
	.st3{fill:#FFFFFF;}
	.st4{fill:#EBEBEB;}
	.st5{fill:#7D1531;}
	.st6{fill:#F92A62;}
	.st7{fill:#FB7FA1;}
	.st8{fill:#FDAAC0;}
	.st9{fill:#FED4E0;}
</style>
<title>css-5</title>
<g id="css-5" transform="translate(11.000000, 0.000000)">
	<path id="Shape" class="st0" d="M33.4,3h-4.7l4.9,5.3v2.5H23.5v-3h4.9l-4.9-5.3V0h9.9L33.4,3z M21.5,3h-4.7l4.9,5.3v2.5H11.6v-3
		h4.9l-4.9-5.3V0h9.9V3z M9.8,3.1H4.7v4.6h5.1v3.1H1.1V0h8.7V3.1z"/>
	<polygon id="Path" class="st1" points="-5.8,73.6 -11,15.7 45.7,15.7 40.5,73.6 17.3,80 	"/>
	<polygon class="st2" points="17.3,75.1 36.1,69.9 40.5,20.5 17.3,20.5 	"/>
	<polygon class="st3" points="17.3,41.4 26.7,41.4 27.4,34.1 17.3,34.1 17.3,27.1 35.1,27.1 35,29 33.2,48.5 17.3,48.5 	"/>
	<polygon class="st4" points="17.4,59.8 17.3,59.8 9.4,57.7 8.9,52 1.8,52 2.8,63.2 17.3,67.2 17.4,67.2 17.4,59.8 	"/>
	<polygon class="st3" points="26.1,48.2 25.3,57.7 17.4,59.8 17.4,67.2 31.9,63.2 32,62 33.2,48.2 26.1,48.2 	"/>
	<path class="st4" d="M17.4,27.1v7.1H0.2l-0.1-1.6L-0.2,29l-0.2-1.9H17.4z M17.3,41.4v7.1H9.5l-0.1-1.6l-0.3-3.6l-0.2-1.9H17.3
		L17.3,41.4z"/>
</g>
<rect x="-119.1" y="98" class="st0" width="25.7" height="25.7"/>
<rect x="-81.3" y="98" class="st5" width="25.7" height="25.7"/>
<rect x="-40.9" y="98" class="st1" width="25.7" height="25.7"/>
<rect x="-5.8" y="98" class="st6" width="25.7" height="25.7"/>
<rect x="29.4" y="98" class="st2" width="25.7" height="25.7"/>
<rect x="73" y="98" class="st7" width="25.7" height="25.7"/>
<rect x="112.3" y="98" class="st8" width="25.7" height="25.7"/>
<rect x="162.4" y="98" class="st9" width="25.7" height="25.7"/>
</svg>
