<?xml version="1.0" encoding="utf-8"?>
<!-- Generator: Adobe Illustrator 23.0.6, SVG Export Plug-In . SVG Version: 6.00 Build 0)  -->
<svg version="1.1" id="Calque_1" xmlns="http://www.w3.org/2000/svg" xmlns:xlink="http://www.w3.org/1999/xlink" x="0px" y="0px"
	 viewBox="0 0 80 61" style="enable-background:new 0 0 80 61;" xml:space="preserve">
<style type="text/css">
	.st0{fill:#7C54FB;}
	.st1{fill:#2E157D;}
	.st2{fill:#170A3F;}
	.st3{fill:#5B29FA;}
	.st4{fill:#441FBB;}
	.st5{fill:#9D7FFC;}
	.st6{fill:#BDA9FD;}
</style>
<title>graphic-tablet</title>
<g>
	<g transform="translate(0.000000, -10.000000)">
		<g id="graphic-tablet" transform="translate(0.000000, 10.000000)">
			<path id="Path" class="st0" d="M45.7,32.1L41,36.8c-0.5,0.5-0.5,1.2,0,1.7c0.2,0.2,0.5,0.3,0.8,0.3c0.3,0,0.6-0.1,0.8-0.3
				l4.7-4.7c0.5-0.5,0.5-1.2,0-1.7C46.9,31.6,46.2,31.6,45.7,32.1L45.7,32.1z"/>
			<path id="Shape" class="st1" d="M68.5,4.3l-0.7,0.7c-0.9-0.3-1.9-0.1-2.6,0.6L35.8,35.1c-1.8,1.8-3.8,3.3-6,4.5
				c-0.7,0.4-1.2,0.9-1.6,1.7l-5,10.6c-0.4,0.8-0.2,1.7,0.4,2.4l-0.9,0.9c-0.5,0.5-0.5,1.2,0,1.7c0.5,0.5,1.2,0.5,1.7,0l0.9-0.9
				c0.4,0.4,0.9,0.6,1.5,0.6c0.3,0,0.6-0.1,0.9-0.2l10.6-5c0.7-0.3,1.3-0.9,1.7-1.6c1.2-2.2,2.7-4.2,4.5-6h0l29.4-29.4
				c0.7-0.7,0.9-1.7,0.6-2.6l0.7-0.7c1.8-1.8,1.8-4.8,0-6.6C73.3,2.5,70.3,2.5,68.5,4.3z M73.5,6c0.9,0.9,0.9,2.4,0,3.3l-0.5,0.5
				l-3.3-3.3L70.2,6C71.1,5.1,72.6,5.1,73.5,6L73.5,6z M26.8,54.1l-1.4-1.4L30,43l6.5,6.5L26.8,54.1z M72.1,12.6L42.7,42h0
				c-1.8,1.8-3.3,3.7-4.5,5.9l-6.6-6.6c2.1-1.3,4.1-2.8,5.9-4.5L66.8,7.4c0.1-0.1,0.2-0.1,0.3,0c0,0,4.9,4.9,4.9,4.9c0,0,0,0,0,0
				C72.2,12.4,72.2,12.6,72.1,12.6L72.1,12.6z"/>
			<path class="st2" d="M76.1,0H3.9C1.8,0,0,1.8,0,3.9v52.8c0,2.2,1.8,3.9,3.9,3.9h72.2c2.2,0,3.9-1.8,3.9-3.9V3.9
				C80,1.8,78.2,0,76.1,0z M77.7,56.7c0,0.9-0.7,1.6-1.6,1.6H3.9c-0.9,0-1.6-0.7-1.6-1.6V3.9c0-0.9,0.7-1.6,1.6-1.6h72.2
				c0.9,0,1.6,0.7,1.6,1.6V56.7z"/>
			<path class="st3" d="M12.8,7.2H8.4C7,7.2,5.9,8.3,5.9,9.6V20c0,1.4,1.1,2.5,2.5,2.5h4.4c1.4,0,2.5-1.1,2.5-2.5V9.6
				C15.3,8.3,14.2,7.2,12.8,7.2L12.8,7.2z M12.9,20c0,0.1-0.1,0.1-0.1,0.1H8.4c-0.1,0-0.1-0.1-0.1-0.1V9.6c0-0.1,0.1-0.1,0.1-0.1
				h4.4c0.1,0,0.1,0.1,0.1,0.1L12.9,20L12.9,20z"/>
			<path class="st3" d="M12.8,38.2H8.4c-1.4,0-2.5,1.1-2.5,2.5V51c0,1.4,1.1,2.5,2.5,2.5h4.4c1.4,0,2.5-1.1,2.5-2.5V40.7
				C15.3,39.3,14.2,38.2,12.8,38.2z M12.9,51c0,0.1-0.1,0.1-0.1,0.1H8.4c-0.1,0-0.1-0.1-0.1-0.1V40.7c0-0.1,0.1-0.1,0.1-0.1h4.4
				c0.1,0,0.1,0.1,0.1,0.1L12.9,51L12.9,51z"/>
			<path class="st1" d="M10.6,25.6c-2.6,0-4.7,2.1-4.7,4.7S8,35,10.6,35s4.7-2.1,4.7-4.7S13.2,25.6,10.6,25.6L10.6,25.6z M10.6,32.6
				c-1.3,0-2.3-1-2.3-2.3c0-1.3,1-2.3,2.3-2.3s2.3,1,2.3,2.3C12.9,31.6,11.9,32.6,10.6,32.6z"/>
			<path class="st0" d="M72.6,17.9c-0.6,0-1.2,0.5-1.2,1.2v31.1c0,0.5-0.4,1-1,1H41.1c-0.6,0-1.2,0.5-1.2,1.2c0,0.6,0.5,1.2,1.2,1.2
				h29.4c1.8,0,3.3-1.5,3.3-3.3V19.1C73.8,18.4,73.3,17.9,72.6,17.9z"/>
			<path class="st0" d="M59.1,9.5c0.6,0,1.2-0.5,1.2-1.2s-0.5-1.2-1.2-1.2H22.6c-1.8,0-3.3,1.5-3.3,3.3v39.6c0,0.6,0.5,1.2,1.2,1.2
				c0.6,0,1.2-0.5,1.2-1.2V10.5c0-0.5,0.4-1,1-1H59.1z"/>
		</g>
	</g>
</g>
<rect x="-113.8" y="100.1" width="25.7" height="25.7"/>
<rect x="-76" y="100.1" class="st2" width="25.7" height="25.7"/>
<rect x="-35.6" y="100.1" class="st1" width="25.7" height="25.7"/>
<rect x="-0.5" y="100.1" class="st4" width="25.7" height="25.7"/>
<rect x="34.7" y="100.1" class="st3" width="25.7" height="25.7"/>
<rect x="78.3" y="100.1" class="st0" width="25.7" height="25.7"/>
<rect x="117.6" y="100.1" class="st5" width="25.7" height="25.7"/>
<rect x="167.7" y="100.1" class="st6" width="25.7" height="25.7"/>
</svg>
