<?xml version="1.0" encoding="utf-8"?>
<!-- Generator: Adobe Illustrator 23.0.6, SVG Export Plug-In . SVG Version: 6.00 Build 0)  -->
<svg version="1.1" id="Calque_1" xmlns="http://www.w3.org/2000/svg" xmlns:xlink="http://www.w3.org/1999/xlink" x="0px" y="0px"
	 viewBox="0 0 80 80" style="enable-background:new 0 0 80 80;" xml:space="preserve">
<style type="text/css">
	.st0{fill:#3E3207;}
	.st1{fill:#7D650E;}
	.st2{fill:#BB9815;}
	.st3{fill:#F9CA1C;}
	.st4{fill:#FAD549;}
	.st5{fill:#FBDF77;}
	.st6{fill:#FDEAA4;}
	.st7{fill:#FEF4D2;}
	.st8{fill:#3E0A18;}
	.st9{fill:#7D1531;}
	.st10{fill:#BB204A;}
	.st11{fill:#F92A62;}
	.st12{fill:#FA5581;}
	.st13{fill:#FB7FA1;}
	.st14{fill:#FDAAC0;}
	.st15{fill:#FED4E0;}
	.st16{fill:#010101;}
	.st17{fill:#0A1825;}
	.st18{opacity:0.3;fill:#010101;enable-background:new    ;}
	.st19{fill:none;}
	.st20{opacity:0.4;fill:#010101;enable-background:new    ;}
	.st21{fill:none;stroke:#3E0A18;stroke-width:1.586;stroke-linejoin:round;stroke-miterlimit:10;}
</style>
<g>
	<path class="st8" d="M16.7,35.1c-2.3,1.1-8.4,5.9-9.5,7.4c-1.2,1.4-1.6-0.8-0.3-4.5c1-3,3.5-7.1,7.7-10.6c2.5-2,7.9-4.9,11.2-6.7
		c0.7-0.4,9.4-4,17.2-5.9c0.7-0.2-0.8,1.1-1,1.8C40.8,20,17.5,34.7,17.5,34.7L16.7,35.1z M49.6,76.3c0.4,2.4,0,2.6-2.5,2.9
		c-2.5,0.3-4.4-0.6-5-1.3c-0.7-0.6-0.8-2-0.1-3.3c0.4-0.8,0.8-1.1,1-2.1c0.2-0.9,0.4-1.2,0.6-1.5c0.2-0.3,0.2-0.6,0.3-2.8
		c0-2.2,0-6.3,0.2-8.1c0.2-1.8,8,0.8,8,0.8s-1.8,4.6-2.3,5.7c-0.5,1.1-0.4,3.3-0.4,3.7s-0.2,1.3-0.3,1.4c-0.1,0,0.4,1.2,0.2,1.9
		C49,74.3,49.6,75.9,49.6,76.3L49.6,76.3z M52.6,7.5c-0.3-1.7,0-5.1,0.4-5.6C54.1,0.4,60,0.2,61.3,2c0.5,0.8,0.5,2.7,0.4,3.9
		c-0.1,1.2-0.4,3.8-0.4,4.7c0,0.6-6.6,1.6-8-0.1C52.8,10.1,52.6,7.5,52.6,7.5L52.6,7.5z M65.8,71.9c2.7,2,4.9,2.3,6.3,3.1
		c1.4,0.7,1,2.1-1.3,2.5c-1.9,0.4-4.9-0.4-6.8-0.4s-6.4,0.2-7.6-0.6c-1.3-0.9-0.8-2.7-0.8-2.7c0.4-1,1.3-3.2,1-5
		c-0.3-1.8-0.6-2.8-1.3-4.5c-0.7-1.7-1.2-5.8-0.5-6s0.4,0,1.3,0.2c0.8,0.2,1.7,0.4,3.5,0.4s3.7-0.3,4.4-0.4c0.7-0.1,1.2-0.3,1,1.1
		c-0.2,1.4-0.9,4-0.9,6c0,2,0,4.4,0.1,4.8C64.1,71,65.1,71.4,65.8,71.9L65.8,71.9z"/>
	<path class="st11" d="M56.2,12c-4.9,4.3-14.5,5.4-28.7,10.9c-3.6,1.4-13.4,5.6-15.7,9.9c7.9-4.5,10.8,1.7,11.4,8.1
		c0.6,6,3.6,9.2,11.3,9c8-0.2,10.4,4.5,12.6,9.9c4.3-20.8,11.1-24.9,15.5-28.4C72,23.9,60.5,10.5,56.2,12L56.2,12z"/>
	<path class="st11" d="M56.2,12c-11.9,4.1-23.6,5.2-37.4,13.7c-3.3,2-10.2,6.6-11.6,15.4c5-5.6,16.7-12.6,30.9-17
		c7.2-2.2,12.5-3.7,18.8-6.2C56.5,15,56.5,13.8,56.2,12L56.2,12z"/>
	<path class="st8" d="M71.3,36.7c0,0-0.9,2.9-2.6,3.9c0,0-1.3,0.4-3.8-0.9c-0.7-0.4-1.3-1.8-1.2-2.2c0-1.1,0.7-1.6,0.7-1.6
		s0.7-1.2,1.6-1.2c0.9,0,2.3,0.2,2.7-0.2C69.2,33.9,71.4,35.2,71.3,36.7L71.3,36.7z M53,8.4c0,0-0.2,2.3-0.5,3.7
		c0,0.3-1.4,0.4-2.4,0.8c1.9,5.4,13.3,5.4,14.8,2.7c-0.7-0.5-2.2-1.3-2.8-1.5c-0.7-0.3-0.6-0.2-0.7-1.5c0-1.3-0.1-3.6-0.2-4.2
		C61,7.8,54.1,7.8,53,8.4L53,8.4z"/>
	<path class="st15" d="M53.4,8.4c0,0,0,1.3-0.1,2.6c0,0.6-0.1,0.9-0.2,1.4c0,0.3,1.5,1.3,2,3.7c2.2,4.8,7.2,2.4,9.2,0.1
		c-0.7-0.5-1.9-1.2-3.2-1.7c-0.7-0.3-0.4-0.9-0.4-2.1c0-1.3-0.2-3.1-0.3-3.8C60.3,7.9,54.5,7.8,53.4,8.4L53.4,8.4z"/>
	<g>
		<path class="st8" d="M53,8.4c0,0,0,0.8-0.2,1.8c0.6,0.6,1.3,1.4,1.9,1.9c0.4,0.4,1.4,0.3,2.3,0.3c0.8,0,1.5,0.1,1.8-0.1
			c0.7-0.4,1.8-1.3,2.3-1.9c0-0.8-0.1-1.6-0.1-1.9C61,7.8,54.1,7.8,53,8.4z"/>
		<path class="st8" d="M57.1,11.8c-0.5,0-1.2,0-1.7-0.1c-0.2,0-0.4-0.2-0.6-0.3c-0.3-0.2-0.6-0.5-1-0.8c-0.7-0.5-0.8-0.9-0.8-1
			c0.3-2.8-0.1-5.2-0.1-5.2s-0.3-1.2,1.4-1.5s2.7-0.4,2.7-0.4s1.1,0,2.7,0.4c1.7,0.3,1.4,1.5,1.4,1.5s-0.4,2.4-0.1,5.2
			c0,0.1,0,0.4-0.8,1c-0.6,0.4-1.1,0.9-1.6,1C58.3,11.8,57.6,11.8,57.1,11.8z"/>
		<path class="st8" d="M57.1,1.4c-3,0-3.6,0.8-4.4,1.7c-0.2,0.2,0,1.6,0.3,4.5h0.4c0,0-0.3-0.8-0.2-1.8s0.2-0.9,0.1-1.1
			c-0.2-0.3-0.5-0.7,0.3-1.2c0.8-0.4,2.1,0.4,3.6,0.4c1.5,0,2.8-0.9,3.6-0.4c0.8,0.4,0.4,0.9,0.3,1.2c-0.2,0.3,0,0.2,0.1,1.1
			c0,0.9-0.2,1.8-0.2,1.8h0.4c0.3-2.9,0.4-4.1,0.3-4.4C60.8,2.2,60.1,1.4,57.1,1.4z M71.3,36.8c0,0-0.9,2.7-2.5,3.7
			c-0.4-0.2-0.3-0.4-0.6-0.9c-0.1-0.1-0.4-0.2-0.5-0.4c-0.1-0.1-0.1-0.4-0.3-0.5c-0.2-0.2-0.3,0-0.5-0.2c-0.2-0.2-0.2-0.4-0.4-0.5
			c-0.1-0.1-0.4-0.1-0.5-0.2c-0.2-0.2-2.2-0.6-2.1-1.1c0.2-0.7,0.5-1.2,0.5-1.2s0.9-1.3,1.7-1.2c0.9,0,1.7,0.2,2.1-0.2
			C68.7,33.7,71.5,35.4,71.3,36.8L71.3,36.8z"/>
		<path class="st8" d="M65.5,16.9c0,0,2.8-0.7,4.8,1.2c1.9,1.9,1.8,4.2,1.2,5.7c0.5,0.6,1.4,2.2,0.7,4.1c3,2.5,1.7,6.4-1,8.9
			c0,0-0.6-2.3-3.1-2.5c0.1-0.9-2.3-1.6-1.2-4c-1.7-0.4-1.7-1.6-1.9-3C64.7,26,65.5,16.9,65.5,16.9L65.5,16.9z"/>
	</g>
	<path class="st15" d="M64.5,18.2c0,0,3.3-1.7,5.2,0.2c1.9,1.9,1.4,4,0.8,5.4c0.5,0.6,1.7,2.2,0.9,4.2c-0.1,0.4-1.1,0.4-1.8,1.6
		c1.8-1,2.9-0.8,3.3,0.5c0.6,2-0.8,4.5-2,5.8c0,0,0-0.1,0-0.1c-0.2,0.7-0.4,2-1.8,3.4c-0.7,0.7-1.2,0.6-2,0.4
		c-0.9-0.2-1.2-0.6-2.5-1.3c-0.7-0.4-0.3-0.9-0.3-1.3c0-0.1,0.1-0.2,0.2-0.4c0.1-0.2,0.4-0.6,0.8-1c0,0,0.6-0.8,1.4-0.8
		c0.9,0,1.8-0.1,2-0.4c0-1.6-1.8-1.6-1.2-4.3c0-0.1,0.3-0.4,1-0.4c-1.1-0.2-1.6-0.3-2.3-1c-0.5-0.5-0.9-1.1-1.1-1.9
		C64.9,25.5,64.5,18.2,64.5,18.2L64.5,18.2z"/>
	<path class="st16" d="M55,15.4c-0.3-0.4-1.7-2.2-4.3-2.9c-0.8-0.2-1.3,0.4-2,0.9c-0.2-0.1-1.2-0.6-1.8-0.3s-0.9,0.6-1.4,0.9
		c-0.3-0.1-1-0.1-1.6,0.1c-0.6,0.2-1.5,0.6-2.3,1.8c-0.5,1.9,9.5,0.5,9.5,0.5L55,15.4z"/>
	<path class="st11" d="M55.1,15.4c-1.4-0.5-1.2-2.2-4.4-2.4c-0.6,0-1,0.4-1.5,0.8c0.2,0.2,0.4,0.6,0.6,0.9c-0.4-0.4-1.1-1-1.8-1.2
		c-0.7-0.1-1.1,0.4-1.8,0.7c0.1,0.1,0.3,0.4,0.4,0.6c-0.6-0.4-1.1-0.5-1.9-0.2c-0.6,0.2-1.7,0.7-2.6,1.9c-0.5,1.9,9.1-0.2,9.1-0.2
		L55.1,15.4z"/>
	<path class="st8" d="M63.5,16.1c0,0,0-0.5,0-0.9c0-0.1-0.4-0.3-0.4-0.4L63,14.6c0,0,0.7-0.4,1.3-0.2c0.6,0.2,0.9,0.9,0.9,0.9
		c1-0.4,1.1,0,1.6,0.6c1.1-0.2,1.2,0.2,1.9,1.2c0,0-0.8-0.1-2.4,0.1C64.8,17.5,63.5,16,63.5,16.1L63.5,16.1z"/>
	<path class="st11" d="M63.3,15.9c0,0,0.3-0.2,0.2-0.3c0.5-0.3,1.2-0.6,1.5,0.3c1-0.4,1.2,0.1,1.7,0.7c1.3-0.6,1.3,0.1,1.4,0.4
		c-0.4,0-1,0-1.8,0.1C64.8,17.3,63.3,15.8,63.3,15.9z"/>
	<path class="st8" d="M48,14.7c0,0,2.6,0.9,4.7,0.8c2.2-0.2,5.8-0.4,7.8,0.8c0,0,2-0.7,3.9-0.2c1.9,0.5,5.4,3.7,4.3,7.2
		c-0.1,0.2-0.7,0.6-1.3,0.8c0,0,0.4,1.5-0.3,2.8c-0.6,1.2-2,3.6-2.1,6.8c0,0.5-0.1,1.7-0.2,2.2c-3.5-0.1-8.9-1.4-14.2-1.3
		c0-0.6,0.1-0.9,0.1-1.5H51c-0.3-1.5-0.4-2.2-0.6-3.4c-1.7-1.1-3.5-2.3-5-4.7C43.8,22.5,48,14.7,48,14.7L48,14.7z M65.4,39
		c0,0,2.8,10-0.5,14.2c0,0,0.5,1.9-0.6,4c-0.2,0.9-0.4,1.7-0.5,2.6c-0.6,3.7-1.6,5.3-1.8,11.3l-2.7,0c0,0-0.3-4.3-1.3-6.6
		c-0.5-1.3-2.7-3.1-2.6-4.8c0.1-1.3,0.4-2.5,2.7-4.3c0.2-2.6-2.4-5.1-2-14.8L65.4,39z"/>
	<path class="st15" d="M64.6,38.6C65.3,43.2,67,50,64,53.3c0.2,0.8,0.2,1.7,0,2.6c-0.1,0.5-0.3,1.1-0.5,1.8
		c-0.4,1.1-0.6,2.7-0.8,3.6c-0.6,3.7-0.6,3.9-0.9,9.9l-2.7,0c0,0-0.3-4.3-1.3-6.6c-0.5-1.3-1.7-2.4-1.8-4.2c-0.1-1.3,0.9-4,3.1-4
		c-0.1-5.4-2.7-4.4-3.3-15.7L64.6,38.6z M48,14.7c0,0,1,0.3,2.1,0.4c1.1,0.1,2.2,0,3.3,0c2.2-0.2,5.2-0.4,7.2,0.8
		c0,0,1.1-0.4,2.3-0.3c0.5,0,1.1,0.5,1.7,0.7c2,0.5,3.9,3.8,3,6.7c-0.1,0.2-0.7,0-1.4,0.2c0.1,0.6,0.2,2.1-0.5,3.6
		c-0.8,1.5-1.8,3.5-1.6,7.3c-4.7-0.2-6.8-0.5-11.5-0.8C52.3,31.7,52,30,52,29.2c0.6-0.3,1-0.6,1.5-1.1c-1.3,0.2-1.9,0.1-2.7-0.3
		c-0.8-0.4-2.2-1.9-3-2.8c-0.1-0.1-0.6,1.4-1.7,1.4c-0.4-0.6,1.3-2.2,1-2.9C45.9,21.2,48,14.7,48,14.7L48,14.7z"/>
	<path class="st8" d="M65,34.9c0,0,0.1,1.6,0.1,2c0,0.4,0.4,1.8,0.4,2.4c-0.5,0.9-2.7,2.8-6.6,3.5c-3.9,0.8-9-5.3-9-5.3
		c0.1-0.6,0.6-2.3,0.9-3.2c0-0.1,0.1-0.3,0.1-0.4C51.3,33.4,65,34.9,65,34.9z"/>
	<path class="st15" d="M64,35c0,1.1,0.2,1.9,0.3,2.7c0.2,1.3,0.6,2.2,0.6,3c0,2.6-3.4,2.2-6.3,2.2c-3.9,0.8-7.2-5.3-7.2-5.3
		c0.3-1,0.4-2.2,0.9-3.2c0-0.5,0.1-1.2,0.2-1.5c5.5,0,9.4,0.3,11.6,0.5C64.1,34,64.1,34.8,64,35L64,35z"/>
	<path class="st8" d="M59.6,40.8c0,0-2.4-5.3-9.5-3.7c-1.7,4.8-4,10.3-2.5,16.3c-1.5,2-3.2,3.1-3.2,6.9c0,3.7,0.2,4.4,0.2,4.4
		l5.3,0.3c0,0,1.7-2.2,2.4-4.6c0.2-0.7,0.4-1.9,0.2-3.3c0.2-0.3,0.9-0.9,1-2.1c0,0,2.6-1.3,4-4.6C58.9,47.3,58.6,44.8,59.6,40.8
		L59.6,40.8z"/>
	<path class="st15" d="M59.6,40.8c-0.1-0.5-1.9-5.4-8.6-3.9c-3.9,10.4-2.5,14.8-1.9,16.6c-2.7,3.4-3.9,4.1-3.3,10.9h3.5
		c1.6-2.6,2-3.5,2.1-6.9c0-0.1-0.5,0.3-0.9,0.7c0.3-1.4,1-1.7,1.6-2.5c0.3-0.4,0.5-0.9,0.5-1.6c3.1-2.1,4.3-4.8,5-7.5
		C58.2,44.8,58.8,41.7,59.6,40.8L59.6,40.8z"/>
	<g>
		<path class="st8" d="M48.5,33.6c0,0,1.2,0,2.3,0.4c1,0.4,1,0.6,1.4,1s1.4,1.1,1.2,1.8c-0.1,0.4-0.3,0.4-0.6,0.8
			c-0.1,0.1-1.1,1.2-1.3,1.3c-0.1,0.1-0.3,0.2-0.4,0.3l-0.7,0.4c-0.4,0.2-0.8,0.4-1.3,0.3c0,0-1.1,0-1.8-0.8c0,0-0.1-0.4,0.1-0.5
			c0,0-0.9-0.8-1.2-1.3c-0.3-0.5-0.3-1.3-0.1-1.7C46.2,35.2,47.9,34.1,48.5,33.6L48.5,33.6z M49.7,77.3l-0.1,1.1
			c0,0-0.4,0.5-3.4,0.4c-3.1,0-3.9-1-4.1-1.5l-0.2-1.2c0,0,0.6-0.9,0.7-0.9c1,0.1,4.4,1.4,6.7,1.8C49.4,77.2,49.5,77.3,49.7,77.3
			L49.7,77.3z M56.2,75c0,0.5,0,0.5,0,1c0.5,0.4,1.9,0.6,4.5,0.6c3.7-0.1,7.2,1.1,11.4,0.4l0-0.8l-0.4,0l-15-1.2L56.2,75z"/>
		<path class="st8" d="M59.5,76.6h1.1c2.4-0.1,4.7,0.4,7.2,0.6c1.3,0,2.9-0.4,2.8-1.3l-12.8-1.1C57,75.7,57.6,76.4,59.5,76.6
			L59.5,76.6z M44.8,57.7c0.4,0.3,3.1,1.9,7.6,1.7c-0.1,0.9,0,2.5-2,5.4c-1,1.4-1.8,4-2,7.2c0,0.7,0.4,1.3-0.1,2.3
			c0.2,0.6,0.9,1.8,1.3,2.5c0.4,0.7,0.5,1.5-1.8,1.6c-2.4,0-6.3-0.2-5.8-2.1c0.3-1,1-2,1.1-2.4c0.1-0.4,0.1-1.6,0.9-2.4
			c0.7-2.2,0.4-4.4,0.3-6.4C44,62.8,43.9,59.4,44.8,57.7L44.8,57.7z M49,21c3.2-4.3,0.5-7.7-4.6-6.7c-2.1,0.4-4.1,1.8-4.3,4.5
			c-0.7,0.1-2.2,0.2-3,3c-0.6,2.2-0.9,2.6-1.9,3.6c-0.7,0.8,0,2.3,0.5,3.5c1.7,3.9,6.8,4.2,10.3,7.2c1.2-0.3,2.4-1.6,2.7-2.5
			c-2.9-3.5-2.3-4.8-3.5-6.6C46.5,26.5,49.4,24.8,49,21L49,21z"/>
	</g>
	<path class="st15" d="M48.4,20.8c0.2-0.3,0.5-0.9,0.6-1.1c0,0,0.5,0.8,0.6,0.8c1.2-2,1.5-4.9,0.1-5.1c-0.3,0-0.9-0.2-1.4-0.4
		c-0.9-0.3-1.7-0.3-3.1,0c-2,0.4-4,1.8-4,3.9c0,0.1,1.4,0.5,1.8,2.2c-0.7-0.9-1.8-2-3.2-1.1c-1.5,0.9-0.7,3.1-2.7,5.4
		c-0.7,0.8-0.6,1.7,0.1,3.5c1.2,2.8,6.7,4.4,9.7,7.1c0.7-0.3,1.2-1,1.6-1.6c-2-2.1-2.8-4.1-3.4-5.5c-0.7-1.7-1.5-2.6-3.1-3.9
		c0.8,0.3,1.4,0.6,1.8,0.9c0.4,0.3,1,0.3,1.5,0.1C47.2,25.2,48.3,22.5,48.4,20.8L48.4,20.8z"/>
	<path class="st8" d="M67.9,21.5c-0.1,1.7-1.4,0.9-2.1,0.5c-1.3-0.6-2.7-1-4.3-1s-3.6,0.1-5.4,0.6c-2.4,0.7-3.1,0.6-4.2,0.1
		c-1.1-0.6-3-2-3-2s0,0.4,0.4,1c0.6,0.7,1.9,1.6,3.6,2.2c0.9,0.3,1.5,0.1,2.3-0.1c4-1,8.2-1.2,11.8,1c0.2,0.1,0.8-0.2,1.1-0.6
		C68.6,22.6,67.9,21.5,67.9,21.5z"/>
	<path class="st17" d="M47.5,38.6c0.4,0.2,0.8,0.4,1.3,0.8c0,0-0.4,0-0.6-0.2C48,39.1,47.5,38.7,47.5,38.6z"/>
	<path class="st15" d="M60.5,3c-0.1-0.4-1.1-1.1-3.4-1.1c-2.5,0-3.2,0.8-3.2,1.2c0,0.1-0.2,1.6-0.2,2.2c0,0,0,0.7,0,1.8
		c0,0.7,0.2,1.1,0.3,2.1c0.1,1,0.4,1.6,0.9,2.4c0.2,0.1,0.4,0.3,0.6,0.3c0.9,0.2,2.5,0.2,3.3,0c0.5-0.1,1.1-1,1.3-1.8
		c0.2-0.9,0.4-1.6,0.4-2.2c0.1-0.6,0.1-1.9,0.2-2.2C60.7,4.6,60.5,3,60.5,3L60.5,3z"/>
	<path class="st8" d="M55.7,58.5c0,0,2.4,1,8.3,0.1c0,0-1.7,8.4-0.9,12.5c0,0,0.8,1.1,6.4,3.1c0,0,2.5,0.6,2.4,1.9
		c0,0,0.1,0.3-3,0.2c-3.1-0.1-5.9-0.6-8-0.6c-2,0-4.2,0.1-4.5-0.5c-0.4-0.5,0.1-1.9,0.7-2.7c0.6-0.9,0.4-1.5,0.4-3
		C57.4,65.6,54.4,61.4,55.7,58.5L55.7,58.5z"/>
	<path class="st11" d="M55.2,59.3c-0.3,0.4,0,2.2,0.5,3.8c0.4,1.7,1.4,2.7,1.7,5.4c0.2,2.7,0.3,3.1-0.5,4.6s-1,3,1.7,3.1
		s4.1,0,6.8,0.4c2.7,0.4,3.6,0.5,5.1,0.3c1.5-0.2,1.8-0.7,1.2-1.2c-0.6-0.4-3.2-0.9-4.4-1.8c-1.1-0.8-4.1-2.2-4.2-2.5
		c-0.1-1.2-0.2-5.6,0-7.1c0.2-1.4,0.5-3.5,0.6-4c0.1-0.5,0.5-1.1-0.2-0.9c-0.8,0.2-3.6,0.6-5.8,0.4C55.6,59.7,55.4,59.2,55.2,59.3
		L55.2,59.3z"/>
	<path class="st18" d="M56.8,73.2c0.8,0.4,1.9,0.6,2.7,0.6c0,0-0.3,1.5,0.2,2.4c0.5,0.9-3.6,0.4-3.6,0.4l-0.2-3.2L56.8,73.2z
		 M68.7,77.1c0.7-0.2,1.2-1,0.6-1.8c-0.6-0.8-1.2-0.9-0.4-0.9c0.8,0,3.8,1.8,3.8,1.8l-1.5,1.4L68.7,77.1z M55.1,61.1
		c1,0.4,2.6,0.4,4,0.4c1.3,0,3.4-0.2,4.7-0.7c1.3-0.4,0.8,0.5,0.8,0.5L63.8,62c0,0-1.7,0.7-4.5,0.6c-3.3,0-4.3-0.4-4.3-0.4
		L55.1,61.1z M55.2,63.3c1,0.4,2.6,0.4,4,0.4c1.3,0,3.1,0,4.5-0.5c0.5-0.2,0.2,0.6,0.2,0.6l-0.2,0.4c0,0-1.8,0.6-4.5,0.6
		c-3.3,0-3.9-0.3-3.9-0.3L55.2,63.3z"/>
	<path class="st19" d="M55.7,58.5c0,0,3.9,1.4,8.3,0.4c0,0-1.7,8-0.9,12.2c0,0,0.8,1.1,6.4,3.1c0,0,2.5,0.6,2.4,1.9
		c0,0,0.1,0.3-3,0.2c-3.1-0.1-5.9-0.6-8-0.6c-2,0-4.2,0.1-4.5-0.5c-0.4-0.5,0.1-1.9,0.7-2.7c0.6-0.9,0.4-1.5,0.4-3
		C57.4,65.6,54.4,61.4,55.7,58.5L55.7,58.5z"/>
	<path class="st19" d="M55.7,58.5c0,0,3.9,1.3,8.3,0.4c0,0-1.7,8.1-0.9,12.2c0,0,0.8,1.1,6.4,3.1c0,0,2.5,0.6,2.4,1.9
		c0,0,0.1,0.3-3,0.2c-3.1-0.1-6-0.9-8-0.6c-2.1,0.4-4.2,0.2-4.5-0.5c-0.3-0.6,0.1-1.9,0.7-2.7c0.6-0.9,0.4-1.5,0.4-3
		C57.4,65.6,54.4,61.4,55.7,58.5L55.7,58.5z"/>
	<path class="st8" d="M52.2,31.8c0,0.3,3.5,2.1,5.4,2.4c1.9,0.4,6,0,6.6-0.1l-0.1,0.6c0,0-4.8,0.7-8.5-0.3c-3.7-1-3.3-1.2-3.3-1.2
		L52.2,31.8z"/>
	<path class="st15" d="M44.7,70.1c0.5,0.3,2.5,0.8,3.7,0.5c0.2,0,0-3.1,0.5-4.5c0.7-1.9,1.9-3.5,2.4-6.9c-1.9-0.2-4-0.7-5.2-1
		C44.8,62.6,45.3,66.4,44.7,70.1L44.7,70.1z M47.7,73c0.3,0.1,0.5,0.4,0.6,0.2c0.2-0.4-0.3-1.2-0.4-1.7v0c-0.4-0.4-3.1-0.4-3-0.2
		c-0.3,0.6-0.8,0.5-1,1.7c-0.1,0.6,0.6,0.1,1.3,0c-1.2,0.8-2.6,1.8-2.8,2.7c-0.3,1.3,0.2,1.6,1.5,2.3c1.2,0.3,2.6,0.3,3.6,0.3
		c1.2-0.2,1.4-0.8,1.1-1.6C48.2,75.4,47.9,73.8,47.7,73L47.7,73z"/>
	<path class="st8" d="M48.2,14.6c1.5,0.9,3.6,0.6,4.3,0.6c0.2,0,2-0.3,2.1-0.3c0.2,0,0.2,0.2,0.2,0.2s-0.7,0.4-2.2,0.4
		c-1.4,0.1-3.1,0-4.1-0.4C47.4,14.6,48.2,14.6,48.2,14.6L48.2,14.6z M63.5,15.4c0.3,0.2,2,0.9,2.8,1.7c0.7,0.7,0.3,0.7,0.2,0.5
		c-0.2-0.2-1.6-1.2-2.1-1.4c-0.5-0.2-1.2-0.6-1.2-0.7C63.2,15.4,63.5,15.4,63.5,15.4L63.5,15.4z"/>
	<path class="st15" d="M48,34.1c1.3-0.1,2.7,0.2,3.5,1.1c0.4,0.4,1.2,0.9,1.1,1.4c0,0.1-0.3,0.5-0.5,0.8c-0.1,0.2-0.5,0.6-0.7,0.7
		c-0.2,0.1-0.8,0.6-0.9,0.7c-0.1,0.1-0.3,0.3-0.4,0.4c-0.4,0.2-0.9,0-1.4-0.2c-0.4-0.2,0.1-0.3-0.4-0.6c-1.2-0.9-1.9-1.4-1.4-3.1
		C46.9,34.9,47.4,34.6,48,34.1L48,34.1z"/>
	<path class="st20" d="M36.5,23.8c-4,1.6-14.3,6.7-17.3,8.3c2.4,1.5,3.6,5.2,3.9,8.9c0,0.4,0.1,0.7,0.1,1c0,0.3,0.1,0.5,0.1,0.7
		c0,0,0,0.1,0,0.2C26.1,35.7,35.6,28,36,27.5c0.2-0.3-0.2-1.4,0.4-2.6C37.2,23.5,38.8,22.8,36.5,23.8L36.5,23.8z M46.2,57.7
		c2.1-4.1,2.1-8.1,2.1-12.7c0-1.9,1.4-4.7,0.7-3.9c-2.7,3-9.5,8.7-14.4,9C41.4,49.9,44.1,53.3,46.2,57.7z"/>
	<path class="st8" d="M15.3,35.9c2.6-1.8,15.8-8.9,19-9.9c3.2-1,2.2-2.2,2.2-2.2s-13,5.6-20.7,10.4"/>
	<path class="st20" d="M53.1,22.9c-1-0.4-1.8,0.8-1.6,2c0.3,1.2,2.7,2.5,2.6,6.7c-0.1,3.5-0.9,4.9-0.9,4.9l-1.7-2.2
		c0,0-0.3-4.9-0.9-5.6c-0.6-0.7-2.4-2-3.1-2.7c-0.7-0.7,0.8-1.6,0.7-2.8c-0.1-1.2,0.8-3.6,0.8-3.6L53.1,22.9z M59.3,42.1
		c-0.1,3.4,0.7,8.4,1,10.7c0.3,2.4,0.7,2.6,0,3.6c-0.7,1-1.7,2.7-1.7,2.7l-3.1-0.3c0,0,2.5-3.1,2.6-3.7c0.1-0.6-1.3-5-1.3-5
		L59.3,42.1z M53.4,10.6c0.6,1.4,1.4,2,2.6,2.4c0.7,0.3,3.6,0.6,4.7-0.6c0.5-0.6,0.2-2.2,0.2-2.2l-2.6,2.1l-3.5-0.6l-0.4-1
		L53.4,10.6z"/>
	<path class="st21" d="M53.6,13.7c1.2,0.8,4.1,1.5,4.9,1.6c0.8,0.2,2.1-0.9,2.7-1.1c0.7-0.3,1.8-0.5,3.2,0.7
		c0.1,0.1-0.3,0.7-0.3,0.7c0,0-0.3,0-0.7-0.2c-0.4-0.2-0.7-0.3-1.2-0.3c-2.2,0.3-2.6,1-4.6,0.6c-2-0.4-2.5-0.8-4.4-0.7"/>
	<path class="st11" d="M53.2,13.8c1.5,0.6,4.4,1.3,5.2,1.5c0.8,0.2,2.1-0.6,2.7-1c1.1-0.7,2.6-0.1,3.2,0.6c0.4,0.5,0.6,0.8,0.6,0.9
		c0,0.2-0.5,0-0.5,0c-0.3-0.1-0.7-0.2-0.9-0.4c-0.4-0.2-0.7-0.4-1.3-0.4c-2.2,0.3-2.7,1-4.6,0.6c-1.9-0.4-2.4-0.9-4.5-0.7"/>
	<path class="st8" d="M46.2,55.8c-0.1-0.1,0.1-0.2,0-0.2c-0.6,0-1.4-0.4-1.8-1.1c-1.9-2.8-4.8-4.6-9.9-4.5c-7.7,0.2-10.7-3-11.3-9
		c-0.3-3.3-1.2-6.5-3.1-8.3L19,33.5c2.1,1.8,2.7,4.7,3.2,8.7c0.7,6,5.6,8.8,11.2,8.9c5.9,0.1,8,1.3,10.2,4.3
		c0.7,0.9,1.5,1.3,2.2,1.4L46.2,55.8z"/>
	<path class="st20" d="M67.1,26.9c0.1,0.7,0.5,2,1.2,2.6c0.3,0.3,0.4,0.4,0.1,0.4c-0.3,0-2.2-0.1-2.2-0.1l-0.5-0.9L67.1,26.9z"/>
</g>
</svg>
