<?xml version="1.0" encoding="utf-8"?>
<!-- Generator: Adobe Illustrator 23.0.6, SVG Export Plug-In . SVG Version: 6.00 Build 0)  -->
<svg version="1.1" id="Calque_1" xmlns="http://www.w3.org/2000/svg" xmlns:xlink="http://www.w3.org/1999/xlink" x="0px" y="0px"
	 viewBox="0 0 80 80" style="enable-background:new 0 0 80 80;" xml:space="preserve">
<style type="text/css">
	.st0{fill:#F9CA1C;}
	.st1{fill:#FFFFFF;}
	.st2{fill:#3E3207;}
	.st3{fill:#7D650E;}
	.st4{fill:#BB9815;}
	.st5{fill:#FAD549;}
	.st6{fill:#FBDF77;}
	.st7{fill:#FDEAA4;}
	.st8{fill:#FEF4D2;}
</style>
<title>01 Base / Ic / invision</title>
<g>
	<g id="invision">
		<path id="Path" class="st0" d="M72.7,0H7.3C3.2,0,0,3.2,0,7.3v65.5c0,4,3.2,7.3,7.3,7.3h65.5c4,0,7.3-3.2,7.3-7.3V7.3
			C80,3.2,76.8,0,72.7,0"/>
		<path id="Shape" class="st1" d="M26.7,25.2c2.7,0,4.9-2.1,4.9-4.8c0-2.7-2.2-4.8-4.9-4.8s-4.9,2.1-4.9,4.8
			C21.8,23.1,24.1,25.2,26.7,25.2 M16.6,51c-0.3,1.2-0.4,2.5-0.4,3.6c0,4.2,2.3,7.1,7.2,7.1c4.1,0,7.3-2.4,9.7-6.3l-1.4,5.8h8
			l4.6-18.4c1.1-4.7,3.4-7.1,6.8-7.1c2.7,0,4.3,1.7,4.3,4.4c0,0.8-0.1,1.7-0.4,2.6L52.6,51c-0.4,1.2-0.5,2.4-0.5,3.6
			c0,4,2.4,7,7.3,7c4.2,0,7.6-2.7,9.5-9.3l-3.2-1.2c-1.6,4.4-2.9,5.2-4,5.2s-1.7-0.7-1.7-2.2c0-0.6,0.1-1.4,0.4-2.2l2.3-8.3
			c0.6-1.9,0.8-3.7,0.8-5.2c0-6.2-3.7-9.4-8.3-9.4c-4.2,0-8.6,3.8-10.7,7.8l1.6-7.2H33.8L32.1,36h5.7l-3.5,14.2
			c-2.8,6.2-7.9,6.3-8.5,6.1c-1.1-0.2-1.7-0.6-1.7-2c0-0.8,0.1-1.9,0.5-3.3L30,29.6H16.3L14.6,36h5.7L16.6,51"/>
	</g>
</g>
<rect x="-113.6" y="97.3" class="st2" width="25.7" height="25.7"/>
<rect x="-75.8" y="97.3" class="st3" width="25.7" height="25.7"/>
<rect x="-35.4" y="97.3" class="st4" width="25.7" height="25.7"/>
<rect x="-0.3" y="97.3" class="st0" width="25.7" height="25.7"/>
<rect x="34.9" y="97.3" class="st5" width="25.7" height="25.7"/>
<rect x="78.5" y="97.3" class="st6" width="25.7" height="25.7"/>
<rect x="117.8" y="97.3" class="st7" width="25.7" height="25.7"/>
<rect x="167.9" y="97.3" class="st8" width="25.7" height="25.7"/>
</svg>
