<?xml version="1.0" encoding="utf-8"?>
<!-- Generator: Adobe Illustrator 23.0.6, SVG Export Plug-In . SVG Version: 6.00 Build 0)  -->
<svg version="1.1" id="Calque_1" xmlns="http://www.w3.org/2000/svg" xmlns:xlink="http://www.w3.org/1999/xlink" x="0px" y="0px"
	 viewBox="0 0 80 80" style="enable-background:new 0 0 80 80;" xml:space="preserve">
<style type="text/css">
	.st0{fill-rule:evenodd;clip-rule:evenodd;fill:#F8F8F8;}
	.st1{fill:#7D650E;}
	.st2{fill-rule:evenodd;clip-rule:evenodd;fill:#F9CA1C;}
	.st3{fill:#3E3207;}
	.st4{fill:#BB9815;}
	.st5{fill:#F9CA1C;}
	.st6{fill:#FAD549;}
	.st7{fill:#FBDF77;}
	.st8{fill:#FDEAA4;}
	.st9{fill:#FEF4D2;}
</style>
<title>01 Base / Ic / pixelperfect</title>
<g>
	<polygon id="Path-3" class="st0" points="62.1,6.9 58,14.4 48.5,20.1 56.4,24.1 62.2,33.1 68.1,23.7 78.2,20 67.3,15.5 	"/>
	<g>
		<path class="st1" d="M61.4,44.6c-0.2,0-0.4,0-0.6-0.1v23.3c0,1.4-1.1,2.5-2.5,2.5H15.5c-1.4,0-2.5-1.1-2.5-2.5V25
			c0-1.4,1.1-2.5,2.5-2.5h23.6c-0.4-0.9-0.4-2-0.2-3H15.5c-3,0-5.5,2.5-5.5,5.5v42.8c0,3,2.5,5.5,5.5,5.5h42.8c3,0,5.5-2.5,5.5-5.5
			V44C63.1,44.4,62.3,44.6,61.4,44.6z"/>
	</g>
	<path class="st2" d="M79.8,20.2c-0.2-0.3-0.5-0.5-0.8-0.5c-1.7,0-16.7-0.6-16.7-18c0-0.5-0.5-1-1-1s-1,0.5-1,1
		c0,17.4-15,18-16.6,18c-0.2,0-0.5,0.1-0.6,0.2c-0.2,0.1-0.2,0.2-0.3,0.3c-0.2,0.3-0.2,0.7,0,1s0.5,0.5,0.9,0.5c0,0,0,0,0.1,0
		c1.7,0,16.6,0.6,16.6,18c0,0.5,0.5,1,1,1s1-0.5,1-1c0-17.3,14.9-18,16.6-18c0.4,0,0.7-0.2,0.9-0.5C80.1,20.9,80.1,20.5,79.8,20.2z
		 M61.3,32.3c-2.2-7.2-7.6-10.3-11.8-11.6c4.2-1.4,9.6-4.5,11.8-11.6c2.2,7.2,7.6,10.3,11.8,11.6C68.9,22,63.5,25.1,61.3,32.3z"/>
</g>
<rect x="-113.6" y="123" class="st3" width="25.7" height="25.7"/>
<rect x="-73.4" y="123" class="st1" width="25.7" height="25.7"/>
<rect x="-33.2" y="123" class="st4" width="25.7" height="25.7"/>
<rect x="7" y="123" class="st5" width="25.7" height="25.7"/>
<rect x="47.3" y="123" class="st6" width="25.7" height="25.7"/>
<rect x="87.5" y="123" class="st7" width="25.7" height="25.7"/>
<rect x="127.7" y="123" class="st8" width="25.7" height="25.7"/>
<rect x="167.9" y="123" class="st9" width="25.7" height="25.7"/>
</svg>
