<?xml version="1.0" encoding="utf-8"?>
<!-- Generator: Adobe Illustrator 23.0.6, SVG Export Plug-In . SVG Version: 6.00 Build 0)  -->
<svg version="1.1" id="Calque_1" xmlns="http://www.w3.org/2000/svg" xmlns:xlink="http://www.w3.org/1999/xlink" x="0px" y="0px"
	 viewBox="0 0 80 80" style="enable-background:new 0 0 80 80;" xml:space="preserve">
<style type="text/css">
	.st0{fill:#FEF4D2;}
	.st1{fill-rule:evenodd;clip-rule:evenodd;fill:#BB9815;}
	.st2{fill:#FDEAA4;}
	.st3{fill:#FFD061;}
	.st4{fill:#EF8930;}
	.st5{fill:#7D650E;}
	.st6{fill:#3E3207;}
	.st7{fill:#BB9815;}
	.st8{fill-rule:evenodd;clip-rule:evenodd;fill:#3E3207;}
	.st9{fill:#F9CA1C;}
	.st10{fill:#FAD549;}
	.st11{fill:#FBDF77;}
</style>
<title>01 Base / Ic / rawSketch</title>
<g>
	<g id="draw" transform="translate(1.500000, 0.000000)">
		<path id="Path" class="st0" d="M76.8,18.5v55.6c0,3.3-2.6,5.9-5.9,5.9H18c-3.3,0-5.9-2.6-5.9-5.9V5.9C12.2,2.6,14.8,0,18,0h40.2
			L76.8,18.5z"/>
		<path class="st1" d="M56.5,68c-0.6,0-1.1-0.4-1.2-1c-0.1-0.7,0.3-1.3,0.9-1.5c5.5-1.2,9.8-4.3,12.4-8.8c2.3-4,3.2-8.9,2.4-13.5
			c-1.8-10.6-10-13.5-16.5-12.8c-6.3,0.7-11.8-0.1-15.9-2.3c-3.6-2-5.9-5-6.3-8.3c-0.5-4.5,2.5-9.8,10.4-10.8
			c0.7-0.1,1.3,0.4,1.4,1.1c0.1,0.7-0.4,1.3-1.1,1.4c-2.9,0.4-5.2,1.4-6.6,3c-1.3,1.4-1.9,3.2-1.7,5c0.3,2.5,2.1,4.9,5,6.5
			c2.5,1.4,7,2.8,14.4,2c5.1-0.6,9.7,0.7,13.2,3.7c3.1,2.7,5.3,6.6,6,11.1c0.9,5.2-0.1,10.7-2.7,15.2c-3,5.1-7.8,8.5-14,9.9
			C56.7,68,56.6,68,56.5,68z"/>
		<path class="st2" d="M76.8,18.5H64.2c-3.3,0-5.9-2.6-5.9-5.9V0"/>
		<polygon class="st3" points="0.1,28.1 33.8,61.8 42.3,64.2 56.5,68.1 52.6,53.9 50.3,45.3 16.6,11.6 		"/>
		<polygon class="st4" points="56.5,68.1 52.6,53.9 50.3,45.3 16.6,11.6 12.4,15.8 47.1,50.4 		"/>
		<path class="st5" d="M0.1,28.1l32.2,32.2c1.8-1.7,4.7-1.7,6.5-1.1c0.3,0.1,0.7-0.2,0.6-0.5c-0.6-1.8-0.6-4.8,1.2-6.5
			c1.8-1.8,4.7-1.8,6.5-1.2c0.1,0,0.2,0,0.3,0c0.2-0.1,0.3-0.3,0.2-0.5c-0.6-1.8-0.6-4.8,1.2-6.5L16.6,11.6L0.1,28.1z"/>
		<path class="st6" d="M47.3,50.9c0.2-0.1,0.3-0.3,0.2-0.5c-0.6-1.8-0.6-4.8,1.2-6.5L16.6,11.6l-4.1,4.1l34.6,34.6L47.3,50.9z"/>
		<path class="st7" d="M0.1,28.1l32.2,32.2c1.8-1.7,4.7-1.7,6.5-1.1c0.2,0.1,0.3,0,0.4-0.1l-35-35L0.1,28.1z"/>
		<path class="st8" d="M46.9,65.4l9.6,2.7l-2.7-9.6c-0.7,0.2-1.4,0.5-2.1,0.8c-0.8,0.5-1.6,1-2.3,1.7C48.2,62.3,47.3,63.8,46.9,65.4
			z"/>
		<path class="st6" d="M56.5,68.1l-2.7-9.6c-0.7,0.2-1.4,0.5-2.1,0.8L56.5,68.1z"/>
	</g>
</g>
<rect x="-107.6" y="101.4" class="st6" width="25.7" height="25.7"/>
<rect x="-67.4" y="101.4" class="st5" width="25.7" height="25.7"/>
<rect x="-27.2" y="101.4" class="st7" width="25.7" height="25.7"/>
<rect x="13" y="101.4" class="st9" width="25.7" height="25.7"/>
<rect x="53.2" y="101.4" class="st10" width="25.7" height="25.7"/>
<rect x="93.5" y="101.4" class="st11" width="25.7" height="25.7"/>
<rect x="133.7" y="101.4" class="st2" width="25.7" height="25.7"/>
<rect x="173.9" y="101.4" class="st0" width="25.7" height="25.7"/>
</svg>
