<?xml version="1.0" encoding="utf-8"?>
<!-- Generator: Adobe Illustrator 23.0.6, SVG Export Plug-In . SVG Version: 6.00 Build 0)  -->
<svg version="1.1" id="Calque_1" xmlns="http://www.w3.org/2000/svg" xmlns:xlink="http://www.w3.org/1999/xlink" x="0px" y="0px"
	 viewBox="0 0 80 80" style="enable-background:new 0 0 80 80;" xml:space="preserve">
<style type="text/css">
	.st0{fill:#F9CA1C;}
</style>
<title>01 Base / Ic / SamsungGuidelines</title>
<g>
	<path id="Combined-Shape" class="st0" d="M18.2,13c7.2,0,17.1,1.7,17.1,12.7l0,0v3.6H22.7v-3.1c0-2.7-1.8-4.5-4.7-4.5
		c-3.2,0-4.3,1.8-4.6,3.4c-0.1,0.5-0.2,1.6,0.1,2.6c1.5,5.9,20.7,9,22.8,19.6c0.3,1.1,0.7,3.9,0.1,8.3C35.1,63.9,27.5,67,18.4,67
		C8.9,67,0,63.6,0,52.3l0,0v-3.8h13.6v4.9c0,2.7,1.9,4.5,5.1,4.5c3.3,0,4.5-1.7,4.9-3.4c0.3-1,0.4-2.5-0.1-3.8l0,0
		C20.9,44.2,2.9,41.2,0.6,31c-0.5-2.5-0.4-4.5-0.1-6.8C1.9,16,9.2,13,18.2,13z M62,13.2c8.9,0,16.8,3,17.7,12.4
		c0.2,1.5,0.1,3.2,0.1,3.3l0,1.7H67v-2.8c0,0,0-1.2-0.2-1.9c-0.3-1.1-1.2-3.7-5.1-3.7c-3.7,0-4.7,2.4-5,3.7
		c-0.2,0.7-0.2,1.6-0.2,2.4v23.1c0,0.6,0,1.3,0.1,1.9c0.3,1.4,1.6,3.5,5.1,3.7l0.3,0l0.3,0c3.5-0.1,4.6-2.4,4.9-3.7
		c0.1-0.6,0.2-1.3,0.1-1.9v-7.3h-5.2v-7.3H80v13.5c0,1,0,1.7-0.2,3.3C78.9,62.6,71,65.9,62,65.9s-16.9-3.2-17.8-12.4
		c-0.2-1.5-0.2-2.2-0.2-3l0-21.6c0-0.9,0.1-2.4,0.2-3.3C45.4,16.1,53,13.2,62,13.2z"/>
</g>
<rect x="31.2" y="94" class="st0" width="25.7" height="25.7"/>
</svg>
