<?xml version="1.0" encoding="utf-8"?>
<!-- Generator: Adobe Illustrator 23.0.6, SVG Export Plug-In . SVG Version: 6.00 Build 0)  -->
<svg version="1.1" id="Calque_1" xmlns="http://www.w3.org/2000/svg" xmlns:xlink="http://www.w3.org/1999/xlink" x="0px" y="0px"
	 viewBox="0 0 80 80" style="enable-background:new 0 0 80 80;" xml:space="preserve">
<style type="text/css">
	.st0{fill:#F92A62;}
	.st1{fill:#3E3207;}
	.st2{fill:#7D650E;}
	.st3{fill:#BB9815;}
	.st4{fill:#F9CA1C;}
	.st5{fill:#FAD549;}
	.st6{fill:#FBDF77;}
	.st7{fill:#FDEAA4;}
	.st8{fill:#FEF4D2;}
	.st9{fill:#3E0A18;}
	.st10{fill:#7D1531;}
	.st11{fill:#BB204A;}
	.st12{fill:#FA5581;}
	.st13{fill:#FB7FA1;}
	.st14{fill:#FDAAC0;}
	.st15{fill:#FED4E0;}
</style>
<title>01 Base / Ic / Sass</title>
<g>
	<g id="sass-1" transform="translate(0.000000, 10.000000)">
		<path id="Shape" class="st0" d="M68.8,34.4c-2.8,0-5.2,0.7-7.2,1.7c-0.7-1.5-1.5-2.8-1.6-3.7c-0.1-1.1-0.3-1.8-0.1-3.2
			c0.2-1.3,1-3.2,1-3.4c0-0.1-0.2-0.8-1.8-0.8c-1.6,0-3,0.3-3.2,0.7c-0.2,0.4-0.5,1.4-0.7,2.4c-0.3,1.5-3.2,6.7-4.9,9.4
			c-0.5-1.1-1-2-1.1-2.7c-0.1-1.1-0.3-1.8-0.1-3.2c0.2-1.3,1-3.2,1-3.4c0-0.1-0.2-0.8-1.8-0.8c-1.6,0-3,0.3-3.2,0.7
			c-0.2,0.4-0.3,1.4-0.7,2.4c-0.3,1-4.2,9.7-5.2,11.9c-0.5,1.2-1,2.1-1.3,2.7c-0.3,0.6,0,0,0,0.1c-0.3,0.5-0.4,0.8-0.4,0.8v0
			c-0.2,0.4-0.5,0.8-0.6,0.8c-0.1,0-0.2-1,0-2.5c0.6-3,2-7.7,2-7.9c0-0.1,0.3-0.9-0.9-1.3c-1.1-0.4-1.5,0.3-1.6,0.3
			c-0.1,0-0.2,0.2-0.2,0.2s1.3-5.3-2.4-5.3c-2.3,0-5.5,2.5-7.1,4.8c-1,0.5-3.1,1.7-5.4,2.9c-0.9,0.5-1.7,1-2.6,1.4l-0.2-0.2
			C14,34.5,5.7,31.2,6.1,24.8C6.2,22.4,7,16.3,21.9,8.9c12.2-6.1,22-4.4,23.7-0.7c2.4,5.3-5.2,15.2-17.9,16.6c-4.8,0.5-7.4-1.3-8-2
			c-0.7-0.7-0.8-0.8-1-0.6c-0.4,0.2-0.2,0.9,0,1.3c0.4,1,1.9,2.7,4.6,3.6c2.3,0.8,8,1.2,14.9-1.5c7.7-3,13.7-11.3,11.9-18.2
			c-1.8-7-13.5-9.4-24.5-5.4C19,4.2,11.9,7.9,6.7,12.7c-6.1,5.7-7.1,10.7-6.7,12.7c1.4,7.4,11.6,12.2,15.6,15.7
			c-0.2,0.1-0.4,0.2-0.6,0.3c-2,1-9.8,5-11.7,9.3c-2.2,4.8,0.3,8.3,2,8.8c5.2,1.5,10.6-1.2,13.4-5.5c2.9-4.3,2.5-9.9,1.2-12.4l0-0.1
			l1.6-0.9c1-0.6,2-1.2,2.9-1.7c-0.5,1.4-0.9,3-1,5.3C23.3,47,24.5,50.6,26,52c0.7,0.6,1.4,0.6,1.9,0.6c1.7,0,2.5-1.4,3.4-3.1
			c1.1-2.1,2-4.5,2-4.5s-1.2,6.5,2,6.5c1.2,0,2.3-1.5,2.9-2.3v0c0,0,0,0,0.1-0.2c0.1-0.1,0.1-0.2,0.2-0.3v0c0.5-0.8,1.5-2.7,3.1-5.7
			c2-4,4-8.9,4-8.9s0.2,1.2,0.8,3.2c0.3,1.2,1.1,2.5,1.7,3.7c-0.5,0.7-0.7,1-0.7,1l0,0c-0.4,0.5-0.8,1-1.2,1.6
			c-1.6,1.9-3.5,4.1-3.7,4.7c-0.3,0.7-0.2,1.3,0.3,1.7c0.4,0.3,1.2,0.4,2,0.3c1.4-0.1,2.4-0.5,2.9-0.7c0.8-0.3,1.7-0.7,2.5-1.3
			c1.6-1.2,2.5-2.8,2.4-5c0-1.2-0.4-2.4-0.9-3.5c0.1-0.2,0.3-0.4,0.4-0.6c2.5-3.6,4.4-7.6,4.4-7.6s0.2,1.2,0.8,3.2
			c0.3,1,0.9,2.1,1.4,3.2c-2.3,1.9-3.8,4.1-4.3,5.5c-0.9,2.7-0.2,3.9,1.2,4.1c0.6,0.1,1.5-0.2,2.1-0.4c0.8-0.3,1.8-0.7,2.7-1.4
			c1.6-1.2,3.1-2.8,3-4.9c0-1-0.3-2-0.7-2.9c2-0.8,4.5-1.3,7.7-0.9c7,0.8,8.3,5.2,8.1,7C78,46,76.6,47,76.1,47.3
			c-0.5,0.3-0.6,0.4-0.6,0.6c0.1,0.3,0.3,0.3,0.7,0.3c0.6-0.1,3.7-1.5,3.8-4.8C80.2,39.1,76.1,34.4,68.8,34.4L68.8,34.4z M15.2,52.5
			C12.9,55,9.7,56,8.3,55.1c-1.5-0.9-0.9-4.6,1.9-7.2c1.7-1.6,4-3.1,5.4-4c0.3-0.2,0.8-0.5,1.4-0.9c0.1-0.1,0.2-0.1,0.2-0.1
			c0.1-0.1,0.2-0.1,0.4-0.2C18.7,46.5,17.7,49.9,15.2,52.5L15.2,52.5z M32,41.1c-0.8,2-2.5,7-3.5,6.7c-0.9-0.2-1.4-4-0.2-7.8
			c0.6-1.9,2-4.1,2.7-5c1.3-1.4,2.6-1.9,3-1.3C34.5,34.4,32.5,39.9,32,41.1z M45.9,47.7c-0.3,0.2-0.7,0.3-0.8,0.2
			c-0.1-0.1,0.1-0.3,0.1-0.3s1.7-1.9,2.4-2.7c0.4-0.5,0.9-1.1,1.4-1.7v0.2C49,45.6,46.9,47.1,45.9,47.7z M56.6,45.3
			c-0.2-0.2-0.2-0.8,0.6-2.6c0.3-0.7,1.1-1.9,2.4-3.1c0.2,0.5,0.3,0.9,0.2,1.3C59.8,43.8,57.8,44.8,56.6,45.3z"/>
	</g>
</g>
<rect x="-119.1" y="113.2" class="st1" width="25.7" height="25.7"/>
<rect x="-81.3" y="113.2" class="st2" width="25.7" height="25.7"/>
<rect x="-40.9" y="113.2" class="st3" width="25.7" height="25.7"/>
<rect x="-5.8" y="113.2" class="st4" width="25.7" height="25.7"/>
<rect x="29.4" y="113.2" class="st5" width="25.7" height="25.7"/>
<rect x="73" y="113.2" class="st6" width="25.7" height="25.7"/>
<rect x="112.3" y="113.2" class="st7" width="25.7" height="25.7"/>
<rect x="162.4" y="113.2" class="st8" width="25.7" height="25.7"/>
<rect x="-108.1" y="163.1" class="st9" width="25.7" height="25.7"/>
<rect x="-70.3" y="163.1" class="st10" width="25.7" height="25.7"/>
<rect x="-29.9" y="163.1" class="st11" width="25.7" height="25.7"/>
<rect x="5.2" y="163.1" class="st0" width="25.7" height="25.7"/>
<rect x="40.4" y="163.1" class="st12" width="25.7" height="25.7"/>
<rect x="84" y="163.1" class="st13" width="25.7" height="25.7"/>
<rect x="123.3" y="163.1" class="st14" width="25.7" height="25.7"/>
<rect x="173.4" y="163.1" class="st15" width="25.7" height="25.7"/>
</svg>
