<?xml version="1.0" encoding="utf-8"?>
<!-- Generator: Adobe Illustrator 23.0.6, SVG Export Plug-In . SVG Version: 6.00 Build 0)  -->
<svg version="1.1" id="Calque_1" xmlns="http://www.w3.org/2000/svg" xmlns:xlink="http://www.w3.org/1999/xlink" x="0px" y="0px"
	 viewBox="0 0 54 81" style="enable-background:new 0 0 54 81;" xml:space="preserve">
<style type="text/css">
	.st0{fill:#FECBAA;}
	.st1{fill:#FFAE85;}
	.st2{fill:#FBDF77;}
	.st3{fill:#F9CA1C;}
	.st4{fill:#FEDFC5;}
	.st5{fill:#BB9815;}
	.st6{fill:#7D650E;}
	.st7{fill:#3E3207;}
	.st8{fill:#FAD549;}
	.st9{fill:#FDEAA4;}
	.st10{fill:#FEF4D2;}
</style>
<title>yoga</title>
<g>
	<g transform="translate(-13.000000, 0.000000)">
		<g id="yoga" transform="translate(13.000000, 0.000000)">
			<path id="Path" class="st0" d="M42.7,67.7c-0.9,5.6-2.1,9.4-2.2,9.8c-0.6,1.9-2.6,2.9-4.5,2.3c-0.1,0-0.1,0-0.2-0.1
				c-0.2-0.1-0.5-0.2-0.7-0.3c-1.3-0.9-2-2.5-1.5-4.1c0,0,0.3-1.1,0.8-2.9c1.1-4.6,2.9-14,1.8-23.4c-0.5-3.9-1.5-7.9-3.3-11.5
				c-0.8-1.7-0.3-3.6,1.2-4.6c0.1-0.1,0.2-0.1,0.4-0.2c0.1-0.1,0.2-0.1,0.3-0.1c0,0,0,0,0,0c1.7-0.7,3.7,0.1,4.5,1.7
				c0.7,1.3,1.2,2.7,1.7,4.1c1.2,3.2,1.9,6.5,2.3,9.8C44.2,55.4,43.6,62.4,42.7,67.7z"/>
			<path class="st1" d="M36.7,78c-0.2,0.6-0.5,1.2-0.9,1.7c-0.2-0.1-0.5-0.2-0.7-0.3c-1.3-0.9-2-2.5-1.5-4.1c0,0,0.3-1.1,0.8-2.9
				c1.1-4.6,2.9-14,1.8-23.4c-0.5-3.9-1.5-7.9-3.3-11.5c-0.8-1.7-0.3-3.6,1.2-4.6c0.1-0.1,0.2-0.1,0.4-0.2c0.1-0.1,0.2-0.1,0.3-0.1
				c0.2,0.3,0.4,0.6,0.6,0.9c2.1,4.2,3.5,9.1,4.2,14.5C41.4,63,36.9,77.4,36.7,78z"/>
			<path class="st2" d="M42.2,16.2v19.5H27.4V16.2c0-0.8-0.6-1.4-1.4-1.4c-2.1,0-3.8,1.7-3.8,3.8v3.8H9.8c-1.3,0-2.4-1.1-2.4-2.4
				v-1.4C7.4,8.3,15.8,0,26,0c3.4,0,6.6,1.1,9.2,2.9C39.5,5.8,42.2,10.7,42.2,16.2z"/>
			<g id="Group" transform="translate(7.343750, 0.000000)">
				<path class="st3" d="M34.9,28.4v7.3H20.1v-4.2c0.2-0.2,0.5-0.3,0.7-0.4c0.1-0.1,0.3-0.1,0.5-0.2c0.6-0.2,1.3-0.4,1.9-0.4
					c1.5,0,2.9,0.6,3.9,1.6C29,30,31.8,28.5,34.9,28.4z"/>
				<path class="st3" d="M27.9,2.9c-4.1,1.1-13,4.7-13,15.7c0,1.6-0.3,2.8-0.9,3.8H2.5c-1.3,0-2.4-1.1-2.4-2.4v-1.4
					C0.1,8.3,8.5,0,18.7,0C22.1,0,25.3,1.1,27.9,2.9z"/>
			</g>
			<path class="st4" d="M52,39.4c0,0.1,0,0.2,0,0.2c0,0.1,0,0.1,0,0.2c-0.2,4.9-4.3,8.8-9.2,8.8c-1.9,0-3.6-0.6-5-1.5
				c-2.4-1.6-4-4.3-4.2-7.3c0-0.1,0-0.1,0-0.2c0-0.1,0-0.2,0-0.2c0-1.4,0.3-2.7,0.9-3.9c1.5-3.1,4.7-5.3,8.4-5.3
				C47.8,30.2,52,34.3,52,39.4z"/>
			<path class="st0" d="M33.5,39.7c0.1,0,0.3,0,0.4,0h17.5c0.1,0,0.3,0,0.4,0c0,0.1,0,0.1,0,0.2c-0.2,4.9-4.3,8.8-9.2,8.8
				c-5,0-9-3.9-9.2-8.8C33.5,39.8,33.5,39.7,33.5,39.7z"/>
			<path class="st5" d="M44.1,56.2c0,2.6-1.8,4.8-4.2,5.3c-0.4,0.1-0.8,0.1-1.2,0.1c-3,0-5.5-2.5-5.5-5.5c0-1.2,0.4-2.3,1.1-3.2
				c1-1.4,2.6-2.3,4.4-2.3c0.5,0,0.9,0.1,1.3,0.2c2.2,0.6,3.9,2.4,4.1,4.8C44.1,55.8,44.1,56,44.1,56.2z"/>
			<g transform="translate(32.968750, 50.625000)">
				<path class="st6" d="M6.9,10.9C6.5,11,6.1,11,5.6,11c-3,0-5.5-2.5-5.5-5.5c0-1.2,0.4-2.3,1.1-3.2c1-1.4,2.6-2.3,4.4-2.3
					c0.5,0,0.9,0.1,1.3,0.2C7.2,3.6,7.2,7.2,6.9,10.9z"/>
				<path class="st6" d="M11.1,5H8.3C5.7,5,3.2,4,1.2,2.3c1-1.4,2.6-2.3,4.4-2.3C8.5,0.1,10.8,2.2,11.1,5z"/>
			</g>
			<path class="st5" d="M53.4,44.5c-1,4.9-4.7,8.5-9.2,8.5h-2.9c-0.4,0-0.8,0-1.3-0.1c-3.9-0.6-7-4-7.9-8.4
				c-0.2-1.2,0.6-2.3,1.8-2.3h17.5C52.7,42.2,53.6,43.3,53.4,44.5z"/>
			<path class="st6" d="M40,52.9c-3.9-0.6-7-4-7.9-8.4c-0.2-1.2,0.6-2.3,1.8-2.3h4.6c0.4,1.8,0.8,3.8,1,5.7
				C39.8,49.6,40,51.2,40,52.9z"/>
			<path class="st7" d="M13.4,21.4v52.1c0,3.2,1.8,6,4.2,6.2c2.5,0.2,4.7-2.6,4.7-6l0-52.2H13.4L13.4,21.4z"/>
			<path class="st6" d="M8,21.4v52.1c0,3.2,1.8,6,4.2,6.2c2.5,0.2,4.7-2.6,4.7-6l0-52.2H8L8,21.4z"/>
			<g transform="translate(26.875000, 32.187500)">
				<path class="st4" d="M10.8,15c-2.4-1.6-4-4.3-4.2-7.3c0-0.1,0-0.1,0-0.2c0-0.1,0-0.2,0-0.2c0-1.4,0.3-2.7,0.9-3.9
					C8,4.3,8.3,5.2,8.7,6.2C9.7,9.1,10.4,12,10.8,15z"/>
				<path class="st4" d="M11,16c1.8,14.6-2.6,28.5-2.8,29.3c-0.6,1.9-2.6,2.9-4.5,2.3C1.7,47,0.7,45,1.3,43.1l0,0
					c0.1-0.2,7-22.3-0.7-37.8c-0.9-1.8-0.2-3.9,1.6-4.8C3.9-0.4,6.1,0.4,7,2.1C9.2,6.5,10.4,11.3,11,16z"/>
			</g>
			<path class="st3" d="M42.2,20.9v2.5c-0.8-0.2-2.6-0.4-4.8,0.8c-0.2,0.1-0.4,0.1-0.6,0.1c-0.4,0-0.8-0.2-1.1-0.6
				c-0.3-0.6-0.1-1.3,0.5-1.6C38.7,20.6,40.9,20.6,42.2,20.9z"/>
			<g transform="translate(43.593750, 36.250000)">
				<path class="st6" d="M4.5,10.5c-0.7,0-1.2-0.5-1.2-1.2V6.5c0-0.7,0.5-1.2,1.2-1.2s1.2,0.5,1.2,1.2v2.8
					C5.7,9.9,5.2,10.5,4.5,10.5z"/>
				<path class="st6" d="M1.3,9.1c-0.7,0-1.2-0.5-1.2-1.2V6.5c0-0.7,0.5-1.2,1.2-1.2s1.2,0.5,1.2,1.2v1.4C2.5,8.6,1.9,9.1,1.3,9.1z"
					/>
				<path class="st6" d="M4.2,2.4C3.5,2.4,3,1.9,3,1.2S3.5,0,4.2,0h0c0.7,0,1.2,0.5,1.2,1.2S4.8,2.4,4.2,2.4z"/>
			</g>
			<path class="st3" d="M23.5,73.7v4.1c0,1.2-1,2.2-2.2,2.2H6.9c-0.8,0-1.5-0.7-1.5-1.5v-0.3c0-3.3,2.7-6,6-6H22
				C22.8,72.3,23.5,72.9,23.5,73.7z"/>
			<path class="st2" d="M18,73.7v4.1c0,1.2-1,2.2-2.2,2.2H1.5C0.7,80,0,79.3,0,78.5v-0.3c0-3.3,2.7-6,6-6h10.6
				C17.4,72.3,18,72.9,18,73.7z"/>
		</g>
	</g>
</g>
<rect x="111.5" y="21.4" class="st3" width="25.7" height="25.7"/>
<rect x="-87.1" y="116.7" class="st7" width="25.7" height="25.7"/>
<rect x="-49.3" y="116.7" class="st6" width="25.7" height="25.7"/>
<rect x="-8.9" y="116.7" class="st5" width="25.7" height="25.7"/>
<rect x="26.2" y="116.7" class="st3" width="25.7" height="25.7"/>
<rect x="61.4" y="116.7" class="st8" width="25.7" height="25.7"/>
<rect x="105" y="116.7" class="st2" width="25.7" height="25.7"/>
<rect x="144.3" y="116.7" class="st9" width="25.7" height="25.7"/>
<rect x="194.4" y="116.7" class="st10" width="25.7" height="25.7"/>
</svg>
